<?xml version="1.0" encoding="UTF-8"?>
<!DOCTYPE svg PUBLIC "-//W3C//DTD SVG 1.1//EN" "http://www.w3.org/Graphics/SVG/1.1/DTD/svg11.dtd">
<svg version="1.1" viewBox="0 0 5500 4250" xmlns="http://www.w3.org/2000/svg" xmlns:xlink="http://www.w3.org/1999/xlink">
 <defs>
  <linearGradient id="ab">
   <stop stop-color="#fff" stop-opacity=".807" offset="0"/>
   <stop stop-color="#fff" stop-opacity="0" offset="1"/>
  </linearGradient>
  <marker id="bc" overflow="visible" orient="auto">
   <path transform="scale(.2)" d="m5.77 0-8.65 5v-10l8.65 5z" fill="#fede17" fill-rule="evenodd" stroke="#fede17" stroke-width="1pt"/>
  </marker>
  <linearGradient id="bb" x1="3690.8" x2="3698.8" y1="2041.1" y2="3722.7" gradientTransform="translate(22)" gradientUnits="userSpaceOnUse">
   <stop stop-color="#fee017" stop-opacity=".143" offset="0"/>
   <stop stop-color="#fedf17" offset=".5"/>
   <stop stop-color="#fede17" stop-opacity=".141" offset="1"/>
  </linearGradient>
  <linearGradient id="bf" x1="510.91" x2="3720.5" y1="2919.4" y2="2919.4" gradientTransform="translate(0 -148.82)" gradientUnits="userSpaceOnUse">
   <stop stop-color="#dfdad4" offset="0"/>
   <stop stop-color="#d4c293" offset=".093"/>
   <stop stop-color="#ffd716" offset=".206"/>
   <stop stop-color="#ea1c28" offset=".347"/>
   <stop stop-color="#9e2163" offset=".583"/>
   <stop stop-color="#a15779" offset=".817"/>
   <stop stop-color="#a0748b" offset="1"/>
  </linearGradient>
  <radialGradient id="ba" cx="5044.9" cy="3307.3" r="87.876" gradientUnits="userSpaceOnUse" xlink:href="#ab"/>
  <radialGradient id="az" cx="5072.8" cy="3291.4" r="243.66" gradientTransform="matrix(1 0 0 .11475 0 2913.7)" gradientUnits="userSpaceOnUse" xlink:href="#ab"/>
  <radialGradient id="ay" cx="4961" cy="2708.2" r="23.966" gradientUnits="userSpaceOnUse" xlink:href="#ab"/>
  <radialGradient id="ax" cx="4745.3" cy="2893.9" r="11.983" gradientUnits="userSpaceOnUse" xlink:href="#ab"/>
  <radialGradient id="aw" cx="4965" cy="3101.6" r="7.989" gradientUnits="userSpaceOnUse" xlink:href="#ab"/>
  <radialGradient id="av" cx="4879.1" cy="2440.6" r="41.941" gradientUnits="userSpaceOnUse" xlink:href="#ab"/>
  <radialGradient id="au" cx="4901.1" cy="2446.5" r="235.67" gradientTransform="matrix(1 0 0 .042373 0 2342.9)" gradientUnits="userSpaceOnUse" xlink:href="#ab"/>
  <radialGradient id="ar" cx="5070.8" cy="1905.3" r="33.952" gradientUnits="userSpaceOnUse" xlink:href="#ab"/>
  <radialGradient id="aq" cx="5124.8" cy="1871.4" r="38.778" gradientTransform="matrix(1 0 0 .61803 0 714.8)" gradientUnits="userSpaceOnUse" xlink:href="#ab"/>
  <marker id="aa" overflow="visible" orient="auto">
   <path transform="scale(.4) rotate(180) translate(10)" d="m0 0 5-5-17.5 5 17.5 5-5-5z" fill="#ee1c25" fill-rule="evenodd" stroke="#ee1c25" stroke-width="1pt"/>
  </marker>
  <marker id="ah" overflow="visible" orient="auto">
   <path transform="scale(.4) rotate(180) translate(10)" d="m0 0 5-5-17.5 5 17.5 5-5-5z" fill="#4cb7e2" fill-rule="evenodd" stroke="#4cb7e2" stroke-width="1pt"/>
  </marker>
  <marker id="ae" overflow="visible" orient="auto">
   <path transform="scale(.4) rotate(180) translate(10)" d="m0 0 5-5-17.5 5 17.5 5-5-5z" fill="#4cb7e2" fill-rule="evenodd" stroke="#4cb7e2" stroke-width="1pt"/>
  </marker>
  <marker id="ai" overflow="visible" orient="auto">
   <path transform="scale(.4) rotate(180) translate(10)" d="m0 0 5-5-17.5 5 17.5 5-5-5z" fill="#4cb7e2" fill-rule="evenodd" stroke="#4cb7e2" stroke-width="1pt"/>
  </marker>
  <marker id="ac" overflow="visible" orient="auto">
   <path transform="scale(.4) rotate(180) translate(10)" d="m0 0 5-5-17.5 5 17.5 5-5-5z" fill="#4cb7e2" fill-rule="evenodd" stroke="#4cb7e2" stroke-width="1pt"/>
  </marker>
  <marker id="ag" overflow="visible" orient="auto">
   <path transform="scale(.4) rotate(180) translate(10)" d="m0 0 5-5-17.5 5 17.5 5-5-5z" fill="#4cb7e2" fill-rule="evenodd" stroke="#4cb7e2" stroke-width="1pt"/>
  </marker>
  <marker id="an" overflow="visible" orient="auto">
   <path transform="scale(.4) rotate(180) translate(10)" d="m0 0 5-5-17.5 5 17.5 5-5-5z" fill="#4cb7e2" fill-rule="evenodd" stroke="#4cb7e2" stroke-width="1pt"/>
  </marker>
  <marker id="al" overflow="visible" orient="auto">
   <path transform="scale(.4) rotate(180) translate(10)" d="m0 0 5-5-17.5 5 17.5 5-5-5z" fill="#4cb7e2" fill-rule="evenodd" stroke="#4cb7e2" stroke-width="1pt"/>
  </marker>
  <marker id="ao" overflow="visible" orient="auto">
   <path transform="scale(.4) rotate(180) translate(10)" d="m0 0 5-5-17.5 5 17.5 5-5-5z" fill="#4cb7e2" fill-rule="evenodd" stroke="#4cb7e2" stroke-width="1pt"/>
  </marker>
  <marker id="af" overflow="visible" orient="auto">
   <path transform="scale(.4) rotate(180) translate(10)" d="m0 0 5-5-17.5 5 17.5 5-5-5z" fill="#4cb7e2" fill-rule="evenodd" stroke="#4cb7e2" stroke-width="1pt"/>
  </marker>
  <marker id="ad" overflow="visible" orient="auto">
   <path transform="scale(.4) rotate(180) translate(10)" d="m0 0 5-5-17.5 5 17.5 5-5-5z" fill="#4cb7e2" fill-rule="evenodd" stroke="#4cb7e2" stroke-width="1pt"/>
  </marker>
  <marker id="am" overflow="visible" orient="auto">
   <path transform="scale(.4) rotate(180) translate(10)" d="m0 0 5-5-17.5 5 17.5 5-5-5z" fill="#4cb7e2" fill-rule="evenodd" stroke="#4cb7e2" stroke-width="1pt"/>
  </marker>
  <marker id="aj" overflow="visible" orient="auto">
   <path transform="scale(.4) rotate(180) translate(10)" d="m0 0 5-5-17.5 5 17.5 5-5-5z" fill="#4cb7e2" fill-rule="evenodd" stroke="#4cb7e2" stroke-width="1pt"/>
  </marker>
  <marker id="ak" overflow="visible" orient="auto">
   <path transform="scale(.4) rotate(180) translate(10)" d="m0 0 5-5-17.5 5 17.5 5-5-5z" fill="#4cb7e2" fill-rule="evenodd" stroke="#4cb7e2" stroke-width="1pt"/>
  </marker>
  <linearGradient id="be" x1="860.01" x2="5317.5" y1="1305.2" y2="1305.2" gradientUnits="userSpaceOnUse">
   <stop stop-color="#545454" offset="0"/>
   <stop stop-color="#bdbdbd" offset=".019"/>
   <stop stop-color="#545454" offset=".037"/>
   <stop stop-color="#bdbdbd" offset=".057"/>
   <stop stop-color="#545454" offset=".077"/>
   <stop stop-color="#bdbdbd" offset=".099"/>
   <stop stop-color="#545454" offset=".12"/>
   <stop stop-color="#bdbdbd" offset=".144"/>
   <stop stop-color="#545454" offset=".17"/>
   <stop stop-color="#bdbdbd" offset=".194"/>
   <stop stop-color="#545454" offset=".222"/>
   <stop stop-color="#bdbdbd" offset=".25"/>
   <stop stop-color="#545454" offset=".281"/>
   <stop stop-color="#bdbdbd" offset=".311"/>
   <stop stop-color="#545454" offset=".345"/>
   <stop stop-color="#bdbdbd" offset=".379"/>
   <stop stop-color="#545454" offset=".418"/>
   <stop stop-color="#bdbdbd" offset=".456"/>
   <stop stop-color="#545454" offset=".5"/>
   <stop stop-color="#bdbdbd" offset=".543"/>
   <stop stop-color="#545454" offset=".593"/>
   <stop stop-color="#bdbdbd" offset=".641"/>
   <stop stop-color="#545454" offset=".699"/>
   <stop stop-color="#bdbdbd" offset=".754"/>
   <stop stop-color="#545454" offset=".818"/>
   <stop stop-color="#bdbdbd" offset=".887"/>
   <stop stop-color="#6a6a6a" offset="1"/>
  </linearGradient>
  <marker id="as" overflow="visible" orient="auto">
   <path transform="scale(.6) translate(0)" d="m8.7186 4.0337-10.926-4.0177 10.926-4.0177c-1.7455 2.3721-1.7354 5.6175-6e-7 8.0354z" fill="#fff" fill-rule="evenodd" stroke="#fff" stroke-linejoin="round" stroke-width=".625"/>
  </marker>
  <marker id="at" overflow="visible" orient="auto">
   <path transform="scale(.6) rotate(180) translate(0)" d="m8.7186 4.0337-10.926-4.0177 10.926-4.0177c-1.7455 2.3721-1.7354 5.6175-6e-7 8.0354z" fill="#fff" fill-rule="evenodd" stroke="#fff" stroke-linejoin="round" stroke-width=".625"/>
  </marker>
  <radialGradient id="bd" cx="477.33" cy="2764.3" r="174.38" gradientUnits="userSpaceOnUse">
   <stop stop-color="#fff" offset="0"/>
   <stop stop-color="#fff" offset=".341"/>
   <stop stop-color="#fff" stop-opacity="0" offset="1"/>
  </radialGradient>
  <marker id="ap" overflow="visible" orient="auto">
   <path transform="scale(.6) rotate(180) translate(0)" d="m8.7186 4.0337-10.926-4.0177 10.926-4.0177c-1.7455 2.3721-1.7354 5.6175-6e-7 8.0354z" fill="#fff" fill-rule="evenodd" stroke="#fff" stroke-linejoin="round" stroke-width=".625"/>
  </marker>
 </defs>
 <path d="M0 0H5500V4250H0z"/>
 <path d="m722.66 2834.4c-24.708-26.9-54.463-41.106-87.812-41.344l-123.94-.9062v-43.125l123.94-.9063c33.349-.2378 63.104-14.444 87.812-41.344m0 127.62c22.256 24.229 40.41 58.739 53.406 102.59 48.875 164.92 101.46 306.99 234.5 358.66 116.52 45.254 1734.6 129.03 2709.9 205.56v-1461.2c-975.33 76.536-2593.4 160.28-2709.9 205.53-133.04 51.671-185.63 193.76-234.5 358.69-12.996 43.854-31.151 78.364-53.406 102.59" fill="url(#bf)"/>
 <path d="m861.96 1216.2h4453.6v177.85h-4453.6z" fill="url(#be)"/>
 <g stroke="#fff">
  <g fill="none">
   <path d="m507.47 2793.5 127.38.9083c63.388.452 113.8 51.416 141.23 143.96 48.875 164.92 101.45 306.99 234.5 358.67 147.18 57.161 2690.2 175.75 3307.3 263.63 559.25 79.634 950.66 157.78 998.59 177.75m-4809-988.02 127.38-.9083c63.388-.452 113.8-51.416 141.23-143.96 48.875-164.92 101.45-306.99 234.5-358.67 147.18-57.161 2690.2-175.75 3307.3-263.63 559.25-79.634 950.66-157.78 998.59-177.75" stroke-width="10"/>
   <path d="m473.33 3694.8v-918.7" stroke-width="7"/>
  </g>
  <path d="m983.33 3694.8v-1432.7" fill="#fff" stroke-width="7"/>
  <path d="m1597.3 3694.8v-1506.7m754 1506.7v-1556.7m756 1556.7v-1608.7m1206 1608.7v-1708.7m-3450.2 548.9v-2060.7" fill="none" stroke-width="7"/>
 </g>
 <path transform="translate(0,8)" d="m648.21 2764.3a170.88 170.88 0 1 1-341.76 0 170.88 170.88 0 1 1 341.76 0z" fill="url(#bd)"/>
 <path d="m3719.1 2044.1v1650.7" fill="#fede17" marker-mid="url(#bc)" stroke="url(#bb)" stroke-width="17"/>
 <path transform="translate(27.96 13.81)" d="m5132.8 3307.3a87.876 87.876 0 1 1-175.75 0 87.876 87.876 0 1 1 175.75 0z" fill="url(#ba)"/>
 <path transform="matrix(1.0554 .35119 -.31966 1.1595 771.28 -2276.6)" d="m5316.5 3291.4a243.66 27.961 0 1 1-487.31 0 243.66 27.961 0 1 1 487.31 0z" fill="url(#az)"/>
 <path d="m4985 2708.2a23.966 23.966 0 1 1-47.932 0 23.966 23.966 0 1 1 47.932 0z" fill="url(#ay)"/>
 <path d="m4757.3 2893.9a11.983 11.983 0 1 1-23.966 0 11.983 11.983 0 1 1 23.966 0z" fill="url(#ax)"/>
 <g fill="url(#aw)">
  <path transform="matrix(2 0 0 2 -4957 -3093.6)" d="m4973 3101.6a7.9887 7.9887 0 1 1-15.977 0 7.9887 7.9887 0 1 1 15.977 0z"/>
  <path transform="matrix(2 0 0 2 -4823.1 -3661)" d="m4973 3101.6a7.9887 7.9887 0 1 1-15.977 0 7.9887 7.9887 0 1 1 15.977 0z"/>
  <path transform="matrix(2.75 0 0 2.75 -8660.7 -6340.7)" d="m4973 3101.6a7.9887 7.9887 0 1 1-15.977 0 7.9887 7.9887 0 1 1 15.977 0z"/>
 </g>
 <path d="m4921.1 2440.6a41.941 41.941 0 1 1-83.882 0 41.941 41.941 0 1 1 83.882 0z" fill="url(#av)"/>
 <path transform="matrix(.8989 -.43815 1.1347 2.7843 -2300.5 -2222)" d="m5136.7 2446.5a235.67 9.9859 0 1 1-471.33 0 235.67 9.9859 0 1 1 471.33 0z" fill="url(#au)"/>
 <text x="770.19391" y="497.689" text-anchor="middle" fill="#fff" font-family="serif" font-size="135" line-height="1.05em"><tspan x="770.19391" y="497.689">⎧</tspan><tspan x="770.19391" y="639.43896">⎪</tspan><tspan x="770.19391" y="781.18896">⎪</tspan><tspan x="770.19391" y="922.93896">⎨</tspan><tspan x="770.19391" y="1064.689">⎪</tspan><tspan x="770.19391" y="1206.439">⎪</tspan><tspan x="770.19391" y="1348.189">⎩</tspan></text>
 <g transform="translate(-34)">
  <path d="m3753.7 1186.3v754.84" fill="none" stroke="#fede17" stroke-width="15"/>
  <path d="m3730.7 1929.3h45.935l-22.968 84.88z" fill="#fede17"/>
 </g>
 <path d="m3280.5 2003.2 135.57-341.76" fill="none" marker-end="url(#at)" marker-start="url(#as)" stroke="#fff" stroke-width="7"/>
 <path d="m3411.1 1594.4c-.7529-1.1381-1.5057-2.2763-2.2487-3.4039-.743-1.1275-1.4761-2.2443-2.1897-3.34-.7135-1.0958-1.4075-2.1703-2.0728-3.2138-.6653-1.0436-1.3016-2.0559-1.9007-3.0279s-1.1607-1.9034-1.6771-2.7861c-.5165-.8827-.9876-1.7164-1.4068-2.494-.4192-.7777-.7862-1.4988-1.0956-2.1577s-.5608-1.2553-.7502-1.7845-.3164-.991-.3782-1.3824c-.062-.3913-.058-.7119.012-.9602.071-.2483.2084-.4239.4134-.5269.2052-.1027.4774-.1332.8158-.092.3384.041.7431.154 1.2112.3352.468.1813.9996.4313 1.5907.7456.5911.3141 1.2418.6928 1.9465 1.13.7048.4371 1.464.9329 2.2708 1.4804.8068.5473 1.6614 1.1465 2.5564 1.789.8948.6426 1.8301 1.3288 2.7972 2.0495.9672.7206 1.9663 1.4758 2.9883 2.2558 1.0219.7799 2.067 1.5846 3.1252 2.4037 1.0582.8192 2.1299 1.6529 3.2051 2.4902 1.0751.8374 2.1538 1.6787 3.2262 2.5131 1.0723.8343 2.1383 1.6617 3.1882 2.4718 1.0499.8102 2.0835 1.6027 3.0918 2.3677 1.0082.7651 1.9907 1.5024 2.939 2.2027.9483.7002 1.862 1.3632 2.7334 1.9804.8713.6171 1.7 1.188 2.479 1.7054.7791.5175 1.5082.981 2.1818 1.3843.6735.4033 1.2909.746 1.8478 1.0233.5569.2772 1.0527.4886 1.4843.6305.4317.142.7988.2141 1.0995.2145.3006 4e-4.5344-.072.7012-.2159.1685-.1424.2658-.3618.2982-.6512.033-.2895 0-.6511-.1006-1.0824-.099-.4313-.2623-.9327-.4867-1.4998-.2245-.5671-.5102-1.2004-.852-1.8944s-.74-1.4488-1.1883-2.2579c-.4482-.809-.9469-1.6724-1.4884-2.5822-.5417-.9099-1.1264-1.8664-1.746-2.8606-.6197-.9943-1.2745-2.0264-1.9554-3.0869-.6809-1.0604-1.388-2.1492-2.112-3.2561-.7238-1.1069-1.4647-2.2321-2.2125-3.3648-.7478-1.1326-1.5027-2.273-2.2547-3.4104-.752-1.1373-1.5013-2.2715-2.2378-3.392-.7366-1.1207-1.4605-2.2275-2.1621-3.3103-.7017-1.0829-1.381-2.1417-2.0292-3.1667-.6481-1.0249-1.2648-2.0159-1.8419-2.9643-.577-.9482-1.1143-1.8533-1.6044-2.7074-.49-.8543-.9327-1.6573-1.3218-2.4022-.389-.745-.724-1.4316-1-2.0545-.2761-.6229-.4928-1.1816-.6463-1.6722-.1537-.4906-.2438-.9125-.2682-1.2634-.024-.3509.017-.6303.1263-.8371.1088-.207.2856-.3406.5289-.4022.2432-.062.5538-.051.9298.031s.8176.2345 1.3216.4547c.504.22 1.0706.5079 1.6951.8583.6247.3505 1.3076.7639 2.0428 1.2339.7352.4701 1.523.997 2.3566 1.5732.8334.5762 1.7127 1.202 2.6299 1.8687.9173.6666 1.8726 1.3745 2.8572 2.1141s1.9988 1.511 3.0331 2.3042c1.0343.7933 2.0888 1.6084 3.1539 2.4348 1.0651.8266 2.1408 1.6646 3.2171 2.5033 1.0764.8388 2.1536 1.6782 3.2215 2.5078s2.1266 1.6492 3.1665 2.4484c1.0399.7993 2.0608 1.5782 3.0537 2.3267.9929.7484 1.9576 1.4665 2.8856 2.1448.9279.6783 1.819 1.3166 2.6654 1.9069.8464.5902 1.648 1.132 2.3983 1.6182.7501.4862 1.4485.9164 2.0897 1.2848.6412.3683 1.2248.6745 1.7467.914.5218.2394.9815.4116 1.3762.5136s.724.1334.9866.093c.2626-.041.4579-.1542.5861-.3402.1286-.1857.189-.445.1836-.7753-.01-.3303-.077-.7325-.2126-1.2034-.1354-.4708-.3346-1.0107-.5935-1.6152-.259-.6044-.578-1.2736-.9515-2.0018-.3733-.7281-.8016-1.5155-1.278-2.3548-.4764-.8394-1.0011-1.7311-1.5666-2.6668-.5656-.9357-1.1721-1.9157-1.811-2.9308s-1.3106-2.0655-2.0057-3.1412c-.695-1.0758-1.4137-2.1771-2.1465-3.2935-.7327-1.1164-1.4796-2.248-2.2305-3.3843-.7511-1.1362-1.5064-2.277-2.2561-3.4117-.7495-1.1347-1.4935-2.2633-2.2221-3.3752-.7285-1.1119-1.4415-2.2071-2.1298-3.2754-.6882-1.0684-1.3515-2.1097-1.981-3.1146s-1.2252-1.9732-1.779-2.8963c-.5538-.923-1.0654-1.8006-1.528-2.6249-.4625-.8245-.8757-1.5956-1.2335-2.3069-.3579-.7112-.6601-1.3624-.902-1.9484s-.4232-1.1064-.5405-1.5577c-.1171-.4513-.17-.833-.1567-1.143.014-.31.094-.5481.2409-.7134.1475-.1651.3623-.2576.6437-.2781.2815-.02.6301.032 1.0431.1538.4132.1219.8913.314 1.4306.5724.5393.2582 1.1402.583 1.7975.9688.6573.3859 1.3714.8331 2.1361 1.3349.7647.5019 1.5802 1.0587 2.4391 1.6624.859.6037 1.7617 1.2547 2.6998 1.9441.9382.6894 1.9122 1.4174 2.9129 2.1743 1.0007.757 2.0282 1.543 3.0733 2.3478 1.0451.8049 2.1077 1.6287 3.178 2.4609s2.1484 1.6727 3.2244 2.511 2.1498 1.6743 3.2118 2.4973c1.0618.8231 2.1117 1.6332 3.14 2.42 1.0284.7868 2.0352 1.5502 3.0113 2.2807.9761.7303 1.9215 1.4274 2.8278 2.0823.9062.6549 1.7732 1.2673 2.5936 1.8293.8204.5621 1.5938 1.0734 2.314 1.5273.7203.4537 1.387.8497 1.995 1.1823.608.3325 1.1571.6013 1.6433.8022.4861.2009.9091.3335 1.2665.3951.3573.062.6486.052.8729-.03s.3813-.2371.4711-.4646c.09-.2274.1123-.5277.069-.8987-.043-.3711-.1519-.8133-.3233-1.3232-.1715-.5098-.4059-1.0877-.6986-1.7285-.2927-.641-.644-1.3452-1.0482-2.1065-.4041-.7613-.8613-1.58-1.3646-2.4485-.5034-.8685-1.0532-1.7872-1.6413-2.7474s-1.215-1.9622-1.8719-2.9966c-.6567-1.0344-1.3436-2.1013-2.0515-3.1908-.7077-1.0894-1.4365-2.2015-2.1764-3.3258-.74-1.1243-1.4912-2.2606-2.2439-3.3986-.7526-1.138-1.5067-2.2775-2.2524-3.4079-.7455-1.1303-1.4826-2.2515-2.2015-3.353-.7191-1.1016-1.4198-2.1834-2.093-3.2356-.6733-1.0521-1.319-2.0745-1.9287-3.0579-.6094-.9833-1.1827-1.9274-1.7119-2.8239-.5293-.8965-1.0142-1.7451-1.4481-2.5386s-.8166-1.5315-1.1423-2.2082c-.3257-.6766-.5943-1.2914-.8014-1.8397-.207-.5484-.3522-1.0298-.4327-1.4413-.08-.4115-.096-.7525-.044-1.0214.051-.2689.17-.4653.3558-.5892.1855-.1239.439-.1745.7585-.1538.3195.021.7056.1134 1.1554.275s.9639.3925 1.5378.6883c.574.2957 1.2083.6568 1.8975 1.077.6892.4203 1.4336.9002 2.2266 1.4327.7931.5325 1.635 1.1178 2.5182 1.7478s1.808 1.3048 2.7658 2.0154c.9579.7106 1.949 1.4572 2.9642 2.2298 1.0153.7727 2.0548 1.5716 3.1091 2.3865 1.0542.8147 2.1233 1.6454 3.1972 2.4816 1.074.8361 2.1529 1.6776 3.2269 2.5137s2.1429 1.6668 3.1971 2.4816c1.0544.8148 2.0938 1.6137 3.1092 2.3864 1.0152.7728 2.0063 1.5191 2.9642 2.2298s1.8825 1.3854 2.7658 2.0154c.8833.6301 1.725 1.2153 2.5182 1.7479.7931.5325 1.5373 1.0123 2.2266 1.4327s1.3234.781 1.8975 1.0769c.574.2959 1.0878.5266 1.5378.6883.4499.1617.8358.2542 1.1554.2751.3197.021.5727-.03.7585-.1539.1856-.124.3046-.32.3558-.5892.052-.2687.036-.61-.044-1.0214-.08-.4113-.2258-.893-.4327-1.4412-.2069-.5483-.4757-1.1633-.8014-1.8398-.3257-.6764-.7084-1.4148-1.1423-2.2082s-.919-1.6422-1.4481-2.5386-1.1025-1.8406-1.712-2.8238c-.6095-.9834-1.2553-2.0058-1.9286-3.058-.6732-1.0521-1.3741-2.134-2.093-3.2356-.7189-1.1014-1.456-2.2226-2.2016-3.3529-.7456-1.1305-1.4997-2.2699-2.2523-3.4079-.7528-1.138-1.5039-2.2744-2.2439-3.3986-.74-1.1243-1.4687-2.2363-2.1764-3.3259-.7079-1.0895-1.3947-2.1563-2.0516-3.1907-.6569-1.0346-1.2835-2.0364-1.8718-2.9967s-1.1378-1.8787-1.6412-2.7474c-.5035-.8686-.9605-1.687-1.3647-2.4485-.4042-.7614-.7554-1.4654-1.0482-2.1064-.2928-.6411-.527-1.2187-.6986-1.7286-.1716-.51-.2801-.9519-.3233-1.3231-.043-.3712-.02-.6711.069-.8988.09-.2276.2468-.3823.471-.4645.2244-.082.5158-.092.873-.03.3572.061.7805.1943 1.2665.395.4861.2008 1.0353.4698 1.6433.8022.6079.3325 1.2748.7287 1.9949 1.1824.7202.4537 1.4938.9652 2.3141 1.5272.8202.5619 1.6874 1.1745 2.5936 1.8293.9062.6549 1.8517 1.3521 2.8278 2.0823.9761.7304 1.9829 1.4939 3.0112 2.2808 1.0283.7868 2.0783 1.5968 3.1402 2.4199 1.0618.8231 2.1356 1.6591 3.2117 2.4973 1.0759.8383 2.154 1.6789 3.2244 2.5111 1.0703.8321 2.1329 1.6559 3.1779 2.4608 1.0451.8049 2.0727 1.5908 3.0734 2.3478 1.0008.757 1.9745 1.4849 2.9129 2.1743.9382.6895 1.8408 1.3403 2.6998 1.9442.8591.6038 1.6744 1.1603 2.4391 1.6623.7647.5019 1.4787.9489 2.1361 1.3349.6575.386 1.258.7105 1.7975.9689s1.0172.4503 1.4305.5724c.4133.1219.7615.1738 1.0432.1537.2816-.02.4963-.1129.6437-.2781.1475-.1651.2272-.4034.2409-.7133.014-.3099-.04-.6919-.1568-1.143-.1171-.4512-.2986-.9719-.5404-1.5578-.2418-.5858-.5442-1.2373-.902-1.9484-.3577-.7112-.7711-1.4824-1.2335-2.3069-.4625-.8242-.9744-1.702-1.5281-2.6249-.5536-.923-1.1494-1.8914-1.7789-2.8963-.6295-1.0047-1.2929-2.0462-1.981-3.1146-.6882-1.0682-1.4014-2.1635-2.1299-3.2753-.7285-1.112-1.4725-2.2406-2.2221-3.3752-.7497-1.1347-1.5049-2.2756-2.256-3.4118-.751-1.1362-1.4978-2.2678-2.2305-3.3843-.7328-1.1164-1.4515-2.2176-2.1466-3.2934-.6951-1.0759-1.3666-2.1261-2.0056-3.1412-.6391-1.0152-1.2454-1.9951-1.811-2.9308-.5656-.9358-1.0902-1.8273-1.5666-2.6668-.4765-.8395-.9045-1.6266-1.2781-2.3548-.3735-.7284-.6922-1.3974-.9514-2.0019-.259-.6045-.458-1.1442-.5935-1.6152-.1356-.471-.2071-.8729-.2126-1.2034-.01-.3305.055-.5892.1835-.7753.1279-.1864.3238-.2992.5862-.3402s.592-.01.9866.093c.3946.1019.8545.2744 1.3762.5136.5218.2394 1.1056.5458 1.7466.9141.6412.3682 1.3397.7986 2.0898 1.2847s1.552 1.0281 2.3983 1.6182 1.7375 1.2288 2.6655 1.9069c.9278.6783 1.8926 1.3964 2.8854 2.1449.9928.7484 2.0139 1.5273 3.0538 2.3266s2.0986 1.619 3.1665 2.4484c1.0679.8296 2.145 1.6691 3.2214 2.5079 1.0764.8386 2.1521 1.6766 3.2172 2.5032 1.065.8265 2.1196 1.6415 3.1539 2.4348s2.0483 1.5646 3.0331 2.3042c.9846.7397 1.9398 1.4474 2.8571 2.1142.9173.6667 1.7965 1.2924 2.63 1.8687.8336.5763 1.6213 1.103 2.3567 1.5731.7352.4701 1.4179.8834 2.0427 1.2339.6246.3506 1.191.6382 1.6951.8584s.9455.3727 1.3216.4546c.3761.082.6864.093.9298.031.2434-.061.4195-.1956.5289-.4021.1088-.207.1505-.4864.1262-.8372-.024-.3507-.1146-.773-.2681-1.2634-.1534-.4904-.3704-1.0495-.6463-1.6721-.2759-.6228-.6112-1.3097-1-2.0545-.389-.7449-.8319-1.5481-1.3219-2.4022-.4899-.8541-1.0273-1.7594-1.6043-2.7075-.5771-.9481-1.1939-1.9394-1.8419-2.9643-.6481-1.0249-1.3276-2.0838-2.0293-3.1666-.7015-1.0829-1.4255-2.1897-2.162-3.3103-.7366-1.1205-1.4858-2.2548-2.2378-3.3921s-1.5069-2.2776-2.2547-3.4104c-.7479-1.1328-1.4886-2.2578-2.2126-3.3648-.7238-1.1069-1.4309-2.1956-2.1119-3.2561-.681-1.0604-1.3356-2.0925-1.9554-3.0868-.6197-.9943-1.2043-1.9507-1.746-2.8607-.5416-.9099-1.04-1.7731-1.4884-2.5822-.4483-.8091-.8464-1.5638-1.1883-2.2579-.342-.694-.6274-1.3271-.852-1.8944-.2246-.5672-.3879-1.0683-.4867-1.4997-.099-.4314-.1331-.7929-.1007-1.0824.033-.2895.1318-.5067.2983-.6513.1686-.1423.4007-.2161.7012-.2159.3005 3e-4.6679.073 1.0995.2145.4315.1418.9276.3535 1.4843.6306.5568.2771 1.1745.6201 1.8478 1.0233.6734.4032 1.4028.8668 2.1818 1.3842.7789.5173 1.6077 1.0885 2.479 1.7055.8713.6171 1.7852 1.2802 2.7334 1.9804s1.9309 1.4376 2.939 2.2026c1.0082.765 2.0419 1.5577 3.0919 2.3677 1.0497.81 2.1157 1.6376 3.1881 2.4719s2.1511 1.6756 3.2262 2.5131c1.0752.8373 2.1469 1.6709 3.2051 2.4901 1.0583.8192 2.1031 1.6238 3.1252 2.4037 1.0221.7801 2.021 1.5352 2.9882 2.2559.9673.7207 1.9024 1.4068 2.7974 2.0494.8949.6427 1.7495 1.2416 2.5563 1.7891.8069.5475 1.5659 1.0432 2.2708 1.4803.7049.4373 1.3553.8157 1.9464 1.1301.5913.3142 1.1228.5641 1.5908.7455.4682.1814.8727.2939 1.2112.3353.3385.041.6107.011.8158-.092.2053-.1027.3426-.2788.4134-.5268.071-.2482.074-.569.013-.9602-.062-.3913-.1889-.8534-.3783-1.3825-.1893-.5291-.441-1.1256-.7502-1.7845-.3093-.6588-.6765-1.3802-1.0956-2.1576-.4191-.7776-.8904-1.6114-1.4068-2.4941-.5164-.8825-1.078-1.8142-1.6771-2.7861-.599-.9719-1.2355-1.9843-1.9008-3.0278-.6651-1.0435-1.3592-2.1181-2.0728-3.2138-.7135-1.0957-1.4466-2.2126-2.1896-3.3401-.743-1.1274-1.4959-2.2657-2.2487-3.4039" fill="none" stroke="#fff" stroke-linecap="round" stroke-width="5"/>
 <path transform="translate(7.9887)" d="m5104.8 1905.3a33.952 33.952 0 1 1-67.904 0 33.952 33.952 0 1 1 67.904 0z" fill="url(#ar)"/>
 <path d="m5163.5 1871.4a38.778 23.966 0 1 1-77.556 0 38.778 23.966 0 1 1 77.556 0z" fill="url(#aq)"/>
 <g fill="none" stroke="#fff">
  <g stroke-linecap="round" stroke-width="5">
   <path d="m3248.9 1461.2c1.2119-.974 2.4238-1.948 3.6209-2.9062 1.1972-.9582 2.3794-1.9004 3.5325-2.8115 1.1532-.9111 2.277-1.7908 3.3581-2.6248s2.1193-1.6222 3.1025-2.3514c.9832-.7293 1.9111-1.3993 2.7732-1.999s1.658-1.1285 2.3793-1.5774c.7212-.449 1.3673-.8175 1.9318-1.0988.5646-.2812 1.0471-.4748 1.4437-.5762.3965-.1015.7064-.1103.9283-.025.2218.085.355.2658.4004.54.045.2743 0 .6429-.1251 1.1024-.1277.4595-.3408 1.0103-.6335 1.6464-.2927.636-.6655 1.3578-1.1104 2.1567s-.9623 1.6754-1.5424 2.6189c-.58.9435-1.223 1.9543-1.9172 3.0201-.6943 1.0657-1.4401 2.1866-2.2244 3.3487-.7844 1.1622-1.6075 2.3658-2.4553 3.5958-.8478 1.2301-1.7205 2.4867-2.6033 3.7542s-1.7758 2.5459-2.6642 3.8194c-.8884 1.2734-1.7721 2.5419-2.6365 3.7897-.8644 1.2477-1.7093 2.4747-2.5208 3.6658-.8114 1.1912-1.5892 2.3462-2.3203 3.4514s-1.4153 2.1601-2.0409 3.1524c-.6256.9922-1.1923 1.9215-1.6902 2.7771-.498.8557-.9267 1.6373-1.2784 2.3364-.3517.6992-.6258 1.3154-.8168 1.8425-.1909.5272-.2982.9648-.3185 1.3094-.02.3446.047.5955.2023.752.1554.1565.3997.218.731.1863.3314-.032.7503-.1573 1.2528-.3721s1.0889-.5195 1.7528-.9071c.664-.3877 1.4059-.8587 2.2171-1.404.8113-.5452 1.6923-1.1651 2.6325-1.8484.9402-.6832 1.94-1.4302 2.9872-2.228 1.0473-.7978 2.1422-1.6466 3.2714-2.5321 1.1293-.8855 2.293-1.808 3.477-2.752 1.1839-.9441 2.3882-1.9099 3.5981-2.8817 1.2098-.9718 2.4252-1.9495 3.6314-2.9173 1.2061-.9678 2.4029-1.9257 3.5759-2.858s2.322-1.839 3.4333-2.7053c1.1113-.8664 2.1846-1.6921 3.2074-2.4637 1.0229-.7716 1.9948-1.4889 2.9048-2.1398.9101-.651 1.7578-1.2352 2.5339-1.7429.7762-.5077 1.4803-.9383 2.1052-1.2841.6248-.3459 1.17-.6064 1.6306-.7764s.836-.2489 1.1238-.2341c.2878.015.4875.1241.5989.3276.1115.2036.1343.5021.071.8928-.064.3908-.2137.8744-.4458 1.4455-.2321.5712-.5465 1.2305-.9361 1.9702-.3896.7398-.8549 1.5604-1.3865 2.4521s-1.13 1.8548-1.7841 2.8776c-.654 1.0227-1.3641 2.1054-2.1177 3.2346s-1.5509 2.3052-2.3781 3.5132c-.8273 1.2081-1.6847 2.4484-2.5578 3.7055s-1.762 2.5311-2.6518 3.806c-.8897 1.275-1.7804 2.5509-2.6573 3.812-.8768 1.2611-1.7397 2.5073-2.5743 3.7232s-1.6408 2.4014-2.4051 3.5421-1.4865 2.2363-2.1545 3.2739c-.6679 1.0376-1.2813 2.0167-1.8295 2.9262-.5482.9094-1.0308 1.7487-1.4392 2.5086-.4085.7599-.7423 1.4399-.9949 2.0331-.2527.5931-.4237 1.0989-.5088 1.5129-.085.414-.084.7355.01.9629.089.2273.2671.3599.5328.3984.2657.039.6197-.017 1.0589-.1646.4391-.1471.9639-.3858 1.5688-.7102.6048-.3243 1.2901-.7348 2.048-1.223.758-.4882 1.589-1.0546 2.4832-1.6887.8943-.6341 1.8521-1.3362 2.862-2.094s2.0721-1.5716 3.1737-2.4275c1.1015-.8559 2.2427-1.7542 3.4095-2.6799 1.1667-.9257 2.3592-1.8789 3.5628-2.8439 1.2036-.9651 2.4183-1.9421 3.6293-2.9151s2.4182-1.942 3.6071-2.8913c1.1888-.9493 2.3591-1.8788 3.4968-2.7733 1.1377-.8946 2.2425-1.754 3.3015-2.5644 1.059-.8103 2.0718-1.5713 3.0268-2.2703.955-.6991 1.8518-1.3358 2.6804-1.8997.8286-.5638 1.5885-1.0542 2.2719-1.4626s1.2897-.7343 1.8131-.9716c.5235-.2373.9635-.3854 1.3168-.4406.3533-.055.6192-.017.7969.1158.1777.1327.2666.3604.2683.6814 0 .3211-.084.7361-.2544 1.2407-.1699.5047-.4241 1.0995-.7562 1.7777s-.7427 1.4404-1.2231 2.2773c-.4805.8369-1.0312 1.7491-1.6419 2.7254s-1.2816 2.0171-2.0008 3.1095c-.7191 1.0923-1.4867 2.2366-2.2896 3.4184-.8028 1.1819-1.6409 2.4016-2.5002 3.644-.8593 1.2423-1.7398 2.5073-2.6268 3.7793-.887 1.2719-1.7805 2.5509-2.6656 3.8209-.8852 1.27-1.7619 2.531-2.6157 3.7674-.8538 1.2365-1.6846 2.4483-2.4784 3.6206-.7939 1.1723-1.5507 2.3049-2.2577 3.3842-.7069 1.0794-1.3639 2.1052-1.9595 3.0654s-1.1296 1.8544-1.5926 2.6726c-.4629.8183-.8544 1.56-1.1671 2.2174s-.5461 1.23-.6951 1.7123c-.1491.4823-.2132.8738-.1899 1.1717.023.2979.1347.5015.3343.6108.1996.1092.4879.1235.8627.045.3748-.078.8365-.2494 1.3804-.5086s1.1705-.6069 1.8728-1.0355 1.4806-.9387 2.326-1.5205c.8454-.5817 1.7581-1.2356 2.7273-1.9498.9691-.7142 1.995-1.4892 3.0652-2.3115s2.1849-1.6923 3.3304-2.5953c1.1456-.9029 2.3222-1.8391 3.5154-2.7931 1.1931-.9539 2.403-1.9257 3.6147-2.8994 1.2117-.9738 2.4252-1.9495 3.6258-2.9114s2.3882-1.9098 3.5484-2.8284c1.1601-.9187 2.2928-1.8078 3.3844-2.6531 1.0916-.8452 2.1419-1.6463 3.1387-2.3901.9967-.7438 1.9397-1.4299 2.8181-2.047s1.6918-1.1648 2.4316-1.6335c.7398-.4688 1.4054-.8583 1.9903-1.1613s1.0885-.519 1.5064-.6434c.418-.1245.7499-.1568.9937-.095.2439.062.3992.2185.4666.4692.067.2507.046.5961-.06 1.0328-.1064.4367-.2987.9653-.5714 1.5799s-.6262 1.3158-1.053 2.0952c-.4267.7795-.927 1.6377-1.4912 2.5643-.5642.9265-1.1927 1.9219-1.8739 2.9736-.6812 1.0518-1.4156 2.1604-2.1901 3.312s-1.5894 2.3465-2.4308 3.5697c-.8414 1.2231-1.7094 2.4748-2.5895 3.7393-.88 1.2646-1.7721 2.542-2.6614 3.8165-.8894 1.2744-1.7758 2.5459-2.6448 3.7986s-1.7204 2.4865-2.54 3.6864c-.8196 1.1998-1.6073 2.3655-2.3498 3.4829-.7426 1.1175-1.4398 2.1864-2.0799 3.1941-.6401 1.0078-1.2227 1.954-1.7377 2.8279s-.9619 1.675-1.3328 2.3947c-.3708.7196-.665 1.3573-.8767 1.9067-.2117.5493-.3403 1.0098-.3824 1.3776-.042.3678 0 .6424.1365.8225.1333.1801.3555.2653.665.2569.3095-.01.7069-.1108 1.1884-.3032s1.0476-.4753 1.6921-.8421c.6444-.3668 1.3677-.8179 2.1614-1.3444.7938-.5266 1.6584-1.1289 2.5837-1.7962.9252-.6672 1.9114-1.3996 2.9465-2.1845 1.0352-.7848 2.1196-1.6224 3.2401-2.4985 1.1204-.8761 2.2771-1.791 3.4557-2.7294 1.1787-.9384 2.3795-1.9005 3.5877-2.8705 1.2083-.9701 2.4239-1.9481 3.6321-2.9181 1.2083-.9701 2.409-1.9321 3.5877-2.8706 1.1787-.9384 2.3353-1.8532 3.4558-2.7294 1.1205-.8761 2.2048-1.7135 3.24-2.4985 1.0353-.7849 2.0212-1.5171 2.9466-2.1845.9254-.6673 1.7897-1.2695 2.5836-1.7961.7939-.5267 1.5169-.9775 2.1615-1.3445.6446-.3669 1.2104-.6494 1.692-.842.4817-.1926.8788-.2947 1.1885-.3032.3097-.01.5315.077.665.2568.1335.18.1783.4549.1364.8225-.042.3677-.1708.8285-.3823 1.3777s-.5061 1.1872-.8768 1.9067c-.3707.7194-.8179 1.5209-1.3328 2.3946-.5148.8738-1.0976 1.8203-1.7376 2.8279s-1.3374 2.0768-2.0799 3.1941c-.7425 1.1174-1.5303 2.2832-2.3499 3.483-.8195 1.1998-1.6709 2.4337-2.5399 3.6864-.869 1.2526-1.7555 2.5241-2.6448 3.7986-.8893 1.2744-1.7814 2.5518-2.6615 3.8164-.88 1.2646-1.748 2.5161-2.5894 3.7394-.8415 1.2232-1.6563 2.4179-2.4309 3.5696s-1.5087 2.2601-2.19 3.312c-.6814 1.0519-1.3096 2.047-1.8739 2.9737s-1.0644 1.7846-1.4913 2.5642c-.4268.7796-.7801 1.4805-1.0529 2.0952-.2729.6148-.4648 1.1431-.5714 1.58-.1066.4368-.1273.7818-.06 1.0327.067.2509.2229.4071.4666.4692.2437.062.5759.029.9937-.095.4178-.1243.9218-.3407 1.5065-.6435s1.2506-.6926 1.9902-1.1612c.7397-.4687 1.5534-1.0166 2.4317-1.6336.8783-.6169 1.8214-1.3033 2.8181-2.047s2.0472-1.5449 3.1387-2.3901c1.0915-.8451 2.2243-1.7344 3.3844-2.653s2.3478-1.8666 3.5483-2.8285c1.2006-.9618 2.4142-1.9376 3.6259-2.9113 1.2117-.9738 2.4215-1.9455 3.6147-2.8995s2.3697-1.8901 3.5153-2.7931c1.1456-.9031 2.2602-1.7728 3.3305-2.5953 1.0702-.8224 2.0959-1.5971 3.0652-2.3115.9693-.7143 1.8818-1.3679 2.7273-1.9498s1.6235-1.0917 2.326-1.5205c.7024-.4288 1.3287-.7761 1.8728-1.0355.544-.2593 1.0054-.4302 1.3804-.5086.3749-.078.6629-.064.8627.045.1997.109.3108.3131.3343.6107.023.2977-.041.6896-.1899 1.1717-.1489.4822-.3826 1.0551-.6951 1.7123-.3126.6573-.7043 1.3993-1.1672 2.2174-.4628.8181-.997 1.7126-1.5925 2.6727-.5956.96-1.2527 1.986-1.9596 3.0653-.7069 1.0792-1.4638 2.212-2.2576 3.3843-.7938 1.1722-1.6246 2.3841-2.4784 3.6205s-1.7306 2.4975-2.6157 3.7675c-.8852 1.27-1.7786 2.5489-2.6657 3.8209-.887 1.272-1.7674 2.5369-2.6267 3.7793-.8594 1.2423-1.6974 2.4619-2.5003 3.6439s-1.5703 2.326-2.2896 3.4185c-.7192 1.0925-1.3899 2.133-2.0007 3.1094s-1.1613 1.8883-1.6419 2.7254-.8908 1.5989-1.2231 2.2773-.5862 1.2729-.7562 1.7777c-.1701.5048-.2559.9195-.2544 1.2407 0 .3213.091.5486.2682.6815.1776.1328.4439.1707.797.1157s.7935-.2034 1.3167-.4405c.5233-.2371 1.1299-.5634 1.8132-.9717.6832-.4082 1.4434-.8989 2.2719-1.4626s1.7255-1.2007 2.6804-1.8996c.9548-.699 1.9679-1.4602 3.0268-2.2704 1.0589-.8103 2.1639-1.6699 3.3015-2.5643 1.1376-.8945 2.308-1.8241 3.4968-2.7733 1.1888-.9493 2.3961-1.9183 3.6071-2.8914 1.211-.973 2.4257-1.9499 3.6293-2.915s2.396-1.9182 3.5628-2.844c1.1668-.9257 2.3078-1.8238 3.4095-2.6798s2.1637-1.6696 3.1737-2.4276c1.01-.7579 1.9676-1.4597 2.8619-2.0939.8944-.6343 1.7252-1.2004 2.4833-1.6887.758-.4884 1.443-.8986 2.048-1.2231s1.1294-.5629 1.5688-.7102c.4393-.1473.793-.2029 1.0589-.1645.2658.038.4433.1712.5327.3984.09.2271.09.5491.01.9628-.085.4138-.2563.92-.5088 1.513s-.5866 1.2733-.9949 2.0331c-.4083.7597-.8912 1.5993-1.4393 2.5086-.548.9093-1.1616 1.8887-1.8295 2.9261-.6678 1.0375-1.3902 2.1333-2.1544 3.274-.7643 1.1406-1.5706 2.3262-2.4052 3.5421-.8345 1.2158-1.6975 2.4621-2.5743 3.7231-.8768 1.2611-1.7675 2.537-2.6573 3.812-.8898 1.2749-1.7786 2.5489-2.6517 3.806-.8731 1.2572-1.7305 2.4974-2.5578 3.7055s-1.6245 2.3839-2.3781 3.5132c-.7537 1.1293-1.4636 2.2118-2.1178 3.2347-.6542 1.0228-1.2523 1.9857-1.7841 2.8775-.5317.8918-.9966 1.7122-1.3864 2.4521s-.7039 1.3989-.9361 1.9702c-.2323.5714-.3822 1.0546-.4458 1.4455-.064.391-.041.6891.071.8928.1113.2037.3113.3126.599.3276.2876.015.6634-.064 1.1238-.234.4604-.1699 1.0059-.4308 1.6306-.7764.6247-.3457 1.3292-.7766 2.1051-1.2841.776-.5076 1.624-1.0921 2.5339-1.7429.9099-.6509 1.8821-1.3683 2.9048-2.1399 1.0227-.7715 2.0962-1.5974 3.2075-2.4636 1.1112-.8663 2.2603-1.7731 3.4333-2.7054 1.1729-.9322 2.3698-1.8901 3.5759-2.8579s2.4215-1.9456 3.6314-2.9173c1.2098-.9718 2.4141-1.9376 3.5981-2.8817s2.3476-1.8665 3.4769-2.7521 2.2241-1.7342 3.2714-2.5321c1.0473-.7978 2.0469-1.5446 2.9873-2.228.9403-.6834 1.821-1.303 2.6324-1.8484s1.553-1.0161 2.2171-1.4039 1.2502-.6922 1.7529-.9072c.5026-.215.9212-.3401 1.2528-.372.3315-.032.5754.03.731.1862.1556.1563.2224.4077.2023.7521-.02.3443-.1278.7823-.3186 1.3093s-.4652 1.1435-.8168 1.8425c-.3515.699-.7805 1.4809-1.2783 2.3364s-1.0647 1.785-1.6902 2.7772c-.6255.9921-1.3099 2.0473-2.0409 3.1523-.731 1.1051-1.509 2.2604-2.3204 3.4514-.8113 1.1911-1.6564 2.4182-2.5207 3.6659-.8644 1.2477-1.7481 2.5162-2.6365 3.7897-.8884 1.2734-1.7814 2.5519-2.6642 3.8194-.8829 1.2675-1.7555 2.524-2.6033 3.7541-.8479 1.2301-1.6709 2.4336-2.4553 3.5958s-1.5301 2.283-2.2244 3.3488c-.6944 1.0658-1.3371 2.0764-1.9173 3.02-.5801.9437-1.0973 1.8199-1.5423 2.619-.4451.799-.8176 1.5204-1.1104 2.1567-.2929.6362-.5056 1.1867-.6335 1.6463-.1279.4597-.1704.828-.1251 1.1024.045.2744.1787.4544.4004.54.2217.086.532.076.9283-.025.3964-.1013.8792-.2952 1.4436-.5763s1.2108-.65 1.9319-1.0987c.7211-.4488 1.5173-.9779 2.3792-1.5775.862-.5995 1.7901-1.2698 2.7732-1.9989.9831-.7292 2.0215-1.5175 3.1026-2.3515 1.081-.8339 2.205-1.7138 3.358-2.6248 1.1531-.911 2.3354-1.8533 3.5325-2.8115 1.1971-.9581 2.4091-1.9321 3.621-2.9061"/>
   <path d="m3138.2 1565.8c-.7937-.952-1.5874-1.9041-2.3713-2.8471-.784-.9431-1.5582-1.8771-2.3132-2.7932-.755-.9162-1.4907-1.8143-2.1981-2.6863-.7074-.8719-1.3864-1.7174-2.0286-2.5288-.6423-.8113-1.2476-1.5884-1.8085-2.3242-.5609-.7357-1.0771-1.43-1.5422-2.0768-.4652-.6468-.8789-1.2458-1.2359-1.7921-.3569-.5463-.6569-1.0395-.8957-1.476s-.4162-.8159-.5294-1.1357-.1618-.5796-.1446-.7782c.017-.1986.1006-.3357.2501-.4114.1495-.076.3655-.089.6464-.043s.6271.1536 1.0357.3187c.4086.165.8798.3883 1.4095.666.5297.2776 1.1182.6098 1.7599.9915s1.337.8131 2.0791 1.2882c.7422.475 1.5315.9939 2.3604 1.5495s1.6976 1.1482 2.5977 1.77c.9.6217 1.8316 1.2728 2.7857 1.9447.954.672 1.9307 1.3649 2.9205 2.07.9898.7052 1.9928 1.4225 2.9992 2.1432 1.0065.7206 2.0164 1.4444 3.0201 2.1624 1.0036.7181 2.001 1.4302 2.9825 2.1277.9816.6975 1.9472 1.3801 2.8877 2.0394.9405.6594 1.8557 1.2953 2.7372 1.8998.8815.6044 1.729 1.1773 2.5347 1.7114s1.5694 1.0292 2.2843 1.4788c.7148.4497 1.3806.8537 1.9915 1.2068.6109.353 1.1666.6548 1.6626.9012.496.2463.932.4368 1.3048.5686.3727.1318.6819.2045.9257.2164.2437.012.4217-.037.5335-.148.1118-.1107.157-.2832.1368-.5167-.02-.2334-.1064-.528-.256-.8816-.1496-.3535-.3629-.7664-.6363-1.235-.2733-.4686-.607-.9932-.9959-1.5691-.3889-.576-.8333-1.2036-1.3271-1.877-.4937-.6733-1.0371-1.3928-1.6227-2.1515-.5856-.7588-1.2137-1.557-1.8763-2.3872-.6625-.8302-1.3596-1.6926-2.0824-2.5788s-1.4715-1.7965-2.2367-2.7221c-.7651-.9256-1.5469-1.8666-2.3356-2.8141-.7887-.9474-1.5844-1.9013-2.3773-2.8527-.7929-.9513-1.5829-1.9001-2.3606-2.8372-.7776-.9372-1.5427-1.8627-2.286-2.768-.7433-.9052-1.4645-1.79-2.1551-2.6463-.6905-.8562-1.3501-1.6837-1.9707-2.4749-.6206-.7913-1.202-1.5461-1.7369-2.2577s-1.0231-1.3799-1.4585-1.999c-.4354-.6192-.8176-1.1889-1.1418-1.7047-.3241-.5158-.5898-.9773-.7934-1.381-.2036-.4038-.3446-.7495-.421-1.035-.076-.2855-.087-.5104-.033-.6739.055-.1636.1763-.2654.3636-.306.1873-.041.4408-.019.7587.061.3179.081.7005.2217 1.1445.4196.4439.198.9496.4533 1.5123.7616.5628.3083 1.1829.67 1.8546 1.0795.6717.4096 1.3952.8673 2.1637 1.3667.7684.4995 1.582 1.0409 2.4329 1.617.8509.576 1.7393 1.187 2.6566 1.8247.9173.6378 1.8636 1.3025 2.8298 1.9857s1.9523 1.385 2.9488 2.0963c.9965.7114 2.0035 1.4325 3.0111 2.1542 1.0077.7217 2.016 1.4441 3.0153 2.1581.9993.7139 1.9895 1.4195 2.9612 2.1078.9717.6884 1.9248 1.3594 2.8502 2.0047.9255.6453 1.8231 1.2648 2.6846 1.8507.8614.5859 1.6865 1.138 2.4678 1.6493.7812.5114 1.5182.9817 2.2047 1.4049.6864.4232 1.3218.7991 1.9009 1.1226s1.1014.5943 1.563.8086c.4615.2143.8619.3717 1.1983.4697s.6084.1361.8146.1132c.2062-.023.3463-.1074.4203-.2533s.081-.3535.024-.6216c-.058-.2682-.1806-.5971-.3662-.9842-.1857-.387-.4342-.8326-.7415-1.3327-.3073-.5002-.6737-1.0552-1.0938-1.6601-.42-.6049-.8941-1.26-1.4155-1.959-.5214-.6991-1.0905-1.4425-1.6996-2.2232-.6092-.7806-1.2588-1.5987-1.9403-2.4466-.6815-.8478-1.3952-1.7256-2.132-2.6248-.7367-.8992-1.4968-1.82-2.2707-2.7537-.7738-.9337-1.5615-1.8802-2.3534-2.8306s-1.588-1.9047-2.3785-2.8539c-.7905-.9491-1.5754-1.893-2.3451-2.8228-.7698-.9299-1.5242-1.8455-2.2543-2.7385-.73-.8929-1.4355-1.763-2.1077-2.6023-.6723-.8392-1.3111-1.6474-1.9088-2.4173-.5976-.77-1.1538-1.5013-1.6616-2.1878-.5078-.6864-.967-1.3277-1.3717-1.9183-.4046-.5906-.7546-1.1304-1.0451-1.6149-.2905-.4846-.5213-.9136-.6891-1.2841s-.2722-.6821-.3113-.933c-.039-.2509-.012-.4408.08-.5692.093-.1284.252-.195.4769-.2006.2249-.01.5158.05.8703.1649.3545.1148.773.2891 1.2517.5194.4788.2302 1.0181.5168 1.6131.8551s1.2459.7285 1.9466 1.165 1.4514.9195 2.2449 1.4423c.7935.5227 1.6301 1.0855 2.5017 1.6808s1.7783 1.2233 2.7114 1.8757c.9331.6525 1.8927 1.3295 2.8695 2.0226.9768.693 1.9708 1.4021 2.9725 2.1183s2.011 1.4395 3.0183 2.1608c1.0072.7214 2.0123 1.4407 3.0057 2.1492s1.9749 1.4059 2.9353 2.0837c.9603.6778 1.8994 1.3358 2.8083 1.9657.9089.63 1.7875 1.2318 2.6276 1.7979s1.6416 1.0962 2.3971 1.5836c.7556.4875 1.4649.932 2.1218 1.3279.6569.3958 1.2611.7426 1.8076 1.0358.5464.2932 1.0347.5323 1.4612.714.4264.1817.7906.3055 1.0902.3693.2996.064.5341.067.7027.01.1685-.058.2706-.1776.3068-.3586.036-.181.01-.4236-.089-.7262-.095-.3025-.2542-.6654-.4753-1.0854-.2212-.4201-.5043-.8978-.8449-1.4288-.3405-.531-.7388-1.1157-1.1891-1.7487s-.9528-1.3146-1.5008-2.0383c-.548-.7238-1.1416-1.49-1.7731-2.2914s-1.3011-1.6381-2.0002-2.5023-1.4279-1.756-2.1772-2.6668c-.7493-.9109-1.5192-1.8408-2.3001-2.7811-.781-.9403-1.5731-1.8909-2.3666-2.8428s-1.5883-1.9051-2.3749-2.8505c-.7865-.9454-1.5647-1.8831-2.3249-2.8042-.7603-.921-1.5027-1.8254-2.218-2.7046-.7153-.8793-1.4035-1.7333-2.0561-2.5543s-1.2694-1.6087-1.8428-2.3562c-.5735-.7474-1.1033-1.4543-1.5829-2.1146-.4796-.6602-.9087-1.2735-1.2818-1.8348-.3731-.5612-.6899-1.0702-.9461-1.5229-.2562-.4526-.4515-.8487-.583-1.1855s-.1989-.6139-.2005-.83c0-.2161.063-.3708.1934-.464.1306-.093.3278-.1247.5901-.096.2623.029.5901.1192.9808.2676s.8445.3556 1.3574.6176 1.0852.5792 1.7116.9466c.6263.3674 1.307.7854 2.0357 1.2478.7286.4624 1.5053.9696 2.3227 1.5146.8175.545 1.6758 1.1279 2.5667 1.7412.8909.6132 1.8146 1.2569 2.762 1.9227.9475.6658 1.9188 1.3538 2.9047 2.0553.9858.7014 1.9862 1.4164 2.9914 2.1359 1.0053.7195 2.0154 1.4435 3.0207 2.163 1.0052.7195 2.0056 1.4345 2.9915 2.136.9858.7015 1.9571 1.3894 2.9046 2.0552.9475.6659 1.8711 1.3095 2.762 1.9228.891.6133 1.7492 1.1961 2.5667 1.7412.8175.545 1.5941 1.052 2.3228 1.5145.7287.4626 1.4092.8803 2.0357 1.2479.6264.3675 1.1985.6845 1.7115.9466s.9666.469 1.3574.6175c.3908.1486.7184.2384.9808.2677.2625.029.4593 0 .5901-.095.1307-.093.1949-.2481.1934-.4641 0-.2159-.069-.4933-.2004-.83-.1314-.3366-.327-.7329-.5831-1.1855s-.5731-.9617-.9461-1.5229-.8023-1.1746-1.2818-1.8348-1.0095-1.3672-1.5829-2.1146c-.5733-.7473-1.1903-1.5352-1.8428-2.3561s-1.3408-1.6751-2.0561-2.5543-1.4577-1.7837-2.2179-2.7047c-.7603-.921-1.5385-1.8587-2.325-2.8042-.7865-.9454-1.5814-1.8986-2.3749-2.8505s-1.5856-1.9025-2.3666-2.8427c-.781-.9403-1.5508-1.8703-2.3001-2.7811-.7493-.9109-1.478-1.8026-2.1772-2.6668-.6991-.8643-1.3686-1.7009-2.0002-2.5024-.6316-.8014-1.225-1.5675-1.7731-2.2913-.5481-.7239-1.0504-1.4053-1.5008-2.0383-.4504-.6331-.8484-1.2176-1.1891-1.7487-.3407-.5312-.6236-1.0086-.8448-1.4288-.2213-.4202-.3806-.7828-.4754-1.0855-.095-.3027-.1247-.545-.089-.7262.036-.1811.1384-.3005.3069-.3586.1684-.058.4032-.054.7026.01.2995.064.6639.1877 1.0903.3693.4263.1815.9148.4209 1.4612.714.5463.293 1.1507.6401 1.8075 1.0358s1.3664.8404 2.1218 1.3278 1.5571 1.0177 2.3971 1.5837c.8401.566 1.7188 1.1679 2.6276 1.7978.9089.6299 1.848 1.288 2.8084 1.9657.9603.6778 1.9419 1.3753 2.9352 2.0837.9934.7085 1.9985 1.4279 3.0058 2.1492 1.0072.7214 2.0165 1.4447 3.0182 2.1609s1.9957 1.4252 2.9725 2.1183c.9768.693 1.9363 1.37 2.8695 2.0225.9331.6525 1.8398 1.2804 2.7114 1.8757.8716.5954 1.7081 1.158 2.5017 1.6809.7936.5228 1.5442 1.0057 2.2449 1.4422.7008.4366 1.3515.8267 1.9466 1.165.5951.3384 1.1342.6248 1.6131.8552s.8971.4044 1.2518.5193c.3546.115.6452.1704.8702.1649.225-.01.3841-.072.477-.2005.093-.1283.1192-.3185.08-.5693-.039-.2508-.1436-.5626-.3113-.9329-.1676-.3704-.3987-.7997-.6891-1.2841-.2904-.4845-.6405-1.0244-1.0451-1.6149-.4046-.5906-.864-1.232-1.3717-1.9184-.5077-.6863-1.0641-1.4179-1.6616-2.1877-.5976-.7699-1.2366-1.5782-1.9088-2.4174s-1.3777-1.7094-2.1077-2.6023-1.4845-1.8086-2.2543-2.7384c-.7697-.9298-1.5546-1.8738-2.3451-2.8229s-1.5866-1.9034-2.3785-2.8538c-.7919-.9505-1.5795-1.897-2.3534-2.8306-.7739-.9337-1.5339-1.8545-2.2707-2.7538-.7369-.8992-1.4504-1.7768-2.132-2.6248-.6816-.8479-1.331-1.6659-1.9402-2.4466-.6093-.7807-1.1782-1.5239-1.6997-2.2231s-.9953-1.354-1.4155-1.959-.7863-1.1599-1.0938-1.6601c-.3074-.5003-.5557-.9456-.7415-1.3328-.1857-.3872-.3085-.7159-.3662-.9841-.058-.2682-.05-.4757.024-.6217s.2141-.2301.4202-.2532c.2061-.023.4784.015.8146.1132.3363.098.7369.2555 1.1983.4697.4615.2141.9841.4852 1.563.8086.579.3234 1.2147.6994 1.901 1.1226.6863.4231 1.4235.8936 2.2047 1.4048.7811.5113 1.6064 1.0635 2.4678 1.6493.8614.5859 1.7591 1.2055 2.6845 1.8508.9254.6452 1.8785 1.3163 2.8502 2.0046.9716.6883 1.9619 1.3939 2.9612 2.1079.9993.7139 2.0077 1.4363 3.0153 2.158s2.0146 1.4428 3.0111 2.1542 1.9826 1.4131 2.9488 2.0963c.9663.6833 1.9125 1.3479 2.8298 1.9857.9174.6379 1.8057 1.2487 2.6566 1.8248.851.5761 1.6644 1.1174 2.433 1.6169.7685.4996 1.4918.9571 2.1636 1.3667.6718.4097 1.2917.7711 1.8546 1.0796.5628.3084 1.0683.5635 1.5124.7615.444.1981.8264.3388 1.1444.4197.318.081.5713.1017.7587.061.1874-.04.3085-.1425.3636-.3059.055-.1634.044-.3886-.032-.674s-.2176-.6313-.421-1.0349c-.2035-.4037-.4694-.8654-.7934-1.381-.324-.5157-.7065-1.0857-1.1418-1.7047-.4353-.6191-.9237-1.2875-1.4585-1.9991-.5348-.7115-1.1164-1.4664-1.7369-2.2576s-1.2802-1.6188-1.9707-2.475-1.4119-1.7411-2.1551-2.6463-1.5084-1.8308-2.286-2.7679c-.7776-.9372-1.5677-1.8859-2.3606-2.8373-.7929-.9513-1.5886-1.9052-2.3773-2.8527s-1.5704-1.8884-2.3356-2.8141c-.7652-.9256-1.5138-1.8358-2.2367-2.722-.7229-.8863-1.4198-1.7485-2.0824-2.5788s-1.2906-1.6284-1.8763-2.3872c-.5857-.7589-1.1289-1.4781-1.6227-2.1516s-.9381-1.3009-1.3271-1.8769c-.389-.5761-.7224-1.1005-.9959-1.5692s-.4866-.8813-.6363-1.235-.2356-.6481-.256-.8816c-.02-.2335.025-.4058.1368-.5167.1117-.1108.2899-.1597.5335-.148.2437.012.5531.085.9257.2164.3727.1317.8089.3225 1.3048.5687s1.0519.5482 1.6626.9012c.6108.3529 1.2768.7571 1.9915 1.2067.7148.4496 1.4787.9448 2.2843 1.4788.8057.534 1.6533 1.1071 2.5347 1.7115s1.7968 1.2404 2.7373 1.8997c.9404.6593 1.9061 1.342 2.8876 2.0394.9815.6975 1.9789 1.4097 2.9826 2.1277 1.0036.718 2.0135 1.4419 3.02 2.1625s2.0094 1.438 2.9992 2.1431c.9898.7052 1.9664 1.3981 2.9205 2.07.9541.672 1.8856 1.323 2.7857 1.9448s1.7687 1.2142 2.5977 1.7699c.829.5558 1.6181 1.0745 2.3604 1.5496.7422.4751 1.4373.9064 2.0791 1.2882s1.2301.7138 1.7599.9915 1.0008.5008 1.4095.666.7547.272 1.0357.3186c.2811.047.4968.032.6464-.043.1497-.075.2328-.2129.2502-.4114.017-.1985-.032-.4585-.1447-.7781-.1131-.3197-.2907-.6993-.5294-1.1357s-.5389-.9299-.8957-1.4761c-.3569-.5462-.7708-1.1454-1.2358-1.7921-.4651-.6467-.9815-1.3411-1.5423-2.0768s-1.1663-1.5129-1.8084-2.3242c-.6422-.8113-1.3213-1.6569-2.0287-2.5288s-1.4431-1.7701-2.1981-2.6862-1.5292-1.8502-2.3132-2.7932c-.7839-.943-1.5776-1.8951-2.3713-2.8472m499.32 144.29c1.7622 11.45 3.5244 21.441 5.2865 20.332 1.7622-1.1091 3.5244-12.937 5.2866-23.915s3.5244-18.822 5.2866-16.304 3.5244 14.778 5.2866 25.259 3.5244 17.217 5.2866 14.267 3.5244-14.949 5.2866-25.143 3.5244-16.85 5.2866-14.314c1.7622 2.5358 3.5244 13.753 5.2865 23.866 1.7622 10.113 3.5244 17.553 5.2866 16.201 1.7622-1.3512 3.5244-11.208 5.2866-21.256s3.5244-18.856 5.2866-19.397c1.7622-.5418 3.5244 7.1836 5.2866 16.844 1.7622 9.6603 3.5244 19.99 5.2866 22.991s3.5244-1.6364 5.2866-10.165 3.5244-19.913 5.2865-25.6c1.7622-5.6874 3.5244-5.0811 5.2866 1.1834s3.5244 17.474 5.2866 25.449 3.5244 11.923 5.2866 9.1913c1.7622-2.7314 3.5244-11.829 5.2866-20.823s3.5244-17.045 5.2866-18.732c1.7622-1.6878 3.5244 3.0991 5.2866 10.982s3.5244 18.17 5.2865 24.082c1.7622 5.9124 3.5244 6.9912 5.2866 2.6958s3.5244-13.6 5.2866-21.919c1.7622-8.3188 3.5244-15.034 5.2866-16.058s3.5244 3.6891 5.2866 11.112 3.5244 17.034 5.2866 23.061 3.5244 8.0919 5.2866 5.113c1.7622-2.9788 3.5244-10.793 5.2865-18.824 1.7622-8.0313 3.5244-15.796 5.2866-18.944s3.5244-1.5142 5.2866 3.8524 3.5244 14.157 5.2866 21.511 3.5244 12.886 5.2866 13.715 3.5244-3.0718 5.2866-9.5231 3.5244-15.132 5.2866-21.53 3.5244-10.221 5.2865-9.6276c1.7622.5936 3.5244 5.5665 5.2866 12.329 1.7622 6.7628 3.5244 15.022 5.2866 20.729 1.7622 5.7071 3.5244 8.6332 5.2866 7.4718s3.5244-6.3567 5.2866-13.034 3.5244-14.581 5.2866-20.047c1.7622-5.4661 3.5244-8.2997 5.2866-7.305s3.5243 5.7776 5.2865 12.115 3.5244 14.016 5.2866 19.656 3.5244 9.063 5.2866 8.8752 3.5244-3.9771 5.2866-9.6681c1.7622-5.6909 3.5244-13.113 5.2866-19.156s3.5244-10.535 5.2866-11.706 3.5244 1.0098 5.2866 5.5727c1.7622 4.563 3.5243 11.387 5.2865 17.738s3.5244 12.068 5.2866 14.976 3.5244 2.9375 5.2866.1644 3.5244-8.2836 5.2866-14.407 3.5244-12.721 5.2866-17.378c1.7622-4.6563 3.5244-7.2697 5.2866-6.9671 1.7622.3027 3.5244 3.5161 5.2866 8.4224 1.7622 4.9064 3.5243 11.408 5.2865 17.21 1.7622 5.8023 3.5244 10.793 5.2866 13.301 1.7622 2.5086 3.5244 2.4867 5.2866.018 1.7622-2.4688 3.5244-7.3422 5.2866-12.949 1.7622-5.6071 3.5244-11.852 5.2866-16.701s3.5244-8.2212 5.2866-9.0913c1.7622-.87 3.5244.7786 5.2866 4.3568s3.5243 9.0331 5.2865 14.638c1.7622 5.6043 3.5244 11.275 5.2866 15.302 1.7622 4.0269 3.5244 6.3502 5.2866 6.3323 1.7622-.018 3.5244-2.3801 5.2866-6.3291s3.5244-9.4348 5.2866-14.841c1.7622-5.4061 3.5244-10.663 5.2866-14.295s3.5244-5.5909 5.2866-5.384 3.5243 2.5813 5.2865 6.4127 3.5244 9.0783 5.2866 14.294 3.5244 10.342 5.2866 14.03c1.7622 3.6887 3.5244 5.8975 5.2866 6.0974s3.5244-1.6155 5.2866-4.9245c1.7622-3.3089 3.5244-8.0817 5.2866-13.079 1.7622-4.9972 3.5244-10.171 5.2866-14.24s3.5243-6.9924 5.2865-8.0944 3.5244-.3681 5.2866 1.9732c1.7622 2.3414 3.5244 6.2738 5.2866 10.827s3.5244 9.6917 5.2866 14.21 3.5244 8.3774 5.2866 10.72 3.5244 3.1443 5.2866 2.2714 3.5244-3.4189 5.2866-7.0292c1.7622-3.6102 3.5243-8.2612 5.2865-12.915s3.5244-9.2768 5.2866-12.884 3.5244-6.1706 5.2866-7.1817c1.7622-1.0112 3.5244-.4586 5.2866 1.4988 1.7622 1.9575 3.5244 5.3116 5.2866 9.3402 1.7622 4.0285 3.5244 8.7086 5.2866 13.084s3.5244 8.4196 5.2866 11.344c1.7621 2.9242 3.5243 4.708 5.2865 5.0373s3.5244-.8025 5.2866-3.1378c1.7622-2.3354 3.5244-5.8656 5.2866-9.8927 1.7622-4.027 3.5244-8.5314 5.2866-12.665s3.5244-7.8739 5.2866-10.55c1.7622-2.6755 3.5244-4.2695 5.2866-4.5256s3.5244.8316 5.2866 3.0331c1.7621 2.2014 3.5243 5.5105 5.2865 9.3196s3.5244 8.103 5.2866 12.131 3.5244 7.7718 5.2866 10.606c1.7622 2.8344 3.5244 4.7442 5.2866 5.4369s3.5244.1608 5.2866-1.4745 3.5244-4.3718 5.2866-7.7369 3.5244-7.3485 5.2866-11.299c1.7621-3.9504 3.5243-7.853 5.2865-11.097 1.7622-3.2442 3.5244-5.8156 5.2866-7.3353s3.5244-1.9783 5.2866-1.335 3.5244 2.3908 5.2866 4.9503c1.7622 2.5594 3.5244 5.9257 5.2866 9.5793 1.7622 3.6535 3.5244 7.584 5.2866 11.211 1.7622 3.6273 3.5244 6.9389 5.2866 9.4682 1.7621 2.5293 3.5243 4.2653 5.2865 4.9841 1.7622.7187 3.5244.4137 5.2866-.8448s3.5244-3.471 5.2866-6.3079c1.7622-2.8368 3.5244-6.2929 5.2866-9.8835 1.7622-3.5907 3.5244-7.3069 5.2866-10.649 1.7622-3.3424 3.5244-6.3007 5.2866-8.4958 1.7622-2.1952 3.5244-3.6185 5.2866-4.1059 1.7621-.4874 3.5243-.034 5.2865 1.2782 1.7622 1.3118 3.5244 3.4825 5.2866 6.2154s3.5244 6.0244 5.2866 9.4505c1.7622 3.4262 3.5244 6.9799 5.2866 10.222s3.5244 6.1654 5.2866 8.4239 3.5244 3.845 5.2866 4.588 3.5244.6373 5.2866-.2824c1.7621-.9197 3.5243-2.6553 5.2865-4.9844 1.7622-2.329 3.5244-5.2497 5.2866-8.4129s3.5244-6.5642 5.2866-9.8134 3.5244-6.3401 5.2866-8.9334 3.5244-4.6821 5.2866-6.0505 3.5244-2.0107 5.2866-1.8763c1.7622.1343 3.5244 1.0487 5.2866 2.6256 1.7621 1.5768 3.5243 3.8167 5.2865 6.4667 1.7622 2.6501 3.5244 5.7082 5.2866 8.8465s3.5244 6.3524 5.2866 9.3113c1.7622 2.959 3.5244 5.6571 5.2866 7.8287 1.7622 2.1715 3.5244 3.8109 5.2866 4.7683s3.5244 1.2282 5.2866.8034 3.5244-1.5481 5.2865-3.243c1.7622-1.695 3.5244-3.9621 5.2866-6.57s3.5244-5.5548 5.2866-8.5537c1.7622-2.999 3.5244-6.0466 5.2866-8.8575 1.7622-2.811 3.5244-5.3807 5.2866-7.479s3.5244-3.7203 5.2866-4.7309 3.5244-1.4056 5.2866-1.165 3.5244 1.1195 5.2865 2.5432c1.7622 1.4236 3.5244 3.3931 5.2866 5.7229 1.7622 2.3299 3.5244 5.0194 5.2866 7.8279 1.7622 2.8086 3.5244 5.7339 5.2866 8.5244s3.5244 5.4426 5.2866 7.7375c1.7622 2.2948 3.5244 4.2281 5.2866 5.6489s3.5244 2.3251 5.2866 2.6516c1.7622.3266 3.5244.072 5.2865-.7281 1.7622-.8003 3.5244-2.1487 5.2866-3.9242 1.7622-1.7754 3.5244-3.9786 5.2866-6.4256s3.5244-5.137 5.2866-7.855 3.5244-5.4619 5.2866-8.0207 3.5244-4.9293 5.2866-6.9367 3.5244-3.6483 5.2866-4.8088c1.7622-1.1604 3.5244-1.8372 5.2865-1.9921 1.7622-.1548 3.5244.215 5.2866 1.0699s3.5244 2.1966 5.2866 3.9168 3.5244 3.8196 5.2866 6.1397 3.5244 4.8604 5.2866 7.4371c1.7622 2.5768 3.5244 5.1885 5.2866 7.6531s3.5244 4.7797 5.2866 6.7902c1.7622 2.0106 3.5244 3.7137 5.2865 5.0015 1.7622 1.2878 3.5244 2.1572 5.2866 2.5603s3.5244.3371 5.2866-.1825c1.7622-.5195 3.5244-1.4947 5.2866-2.851s3.5244-3.095 5.2866-5.0949c1.7622-1.9998 3.5244-4.2612 5.2866-6.6338s3.5244-4.8558 5.2866-7.2908c1.7622-2.4349 3.5244-4.8201 5.2865-7.0084 1.7622-2.1883 3.5244-4.1776 5.2866-5.8504 1.7622-1.6729 3.5244-3.0267 5.2866-3.987 1.7622-.9602 3.5244-1.5242 5.2866-1.6676s3.5244.1362 5.2866.8123c1.7622.6762 3.5244 1.7506 5.2866 3.1511s3.5244 3.1283 5.2866 5.0756c1.7622 1.9474 3.5244 4.1147 5.2865 6.373 1.7622 2.2583 3.5244 4.607 5.2866 6.9115 1.7622 2.3044 3.5244 4.5633 5.2866 6.6517s3.5244 4.0044 5.2866 5.6464 3.5244 3.0078 5.2866 4.0294 3.5244 1.6966 5.2866 1.9968c1.7622.3001 3.5244.2233 5.2866-.2179 1.7622-.4411 3.5244-1.2483 5.2865-2.3707 1.7622-1.1224 3.5244-2.5612 5.2866-4.2343s3.5244-3.5812 5.2866-5.6208 3.5244-4.2106 5.2866-6.3997c1.7622-2.189 3.5244-4.3955 5.2866-6.5081s3.5244-4.1301 5.2866-5.9543c1.7622-1.8243 3.5244-3.4536 5.2866-4.8125 1.7622-1.359 3.5243-2.4455 5.2865-3.213s3.5244-1.2141 5.2866-1.3255 3.5244.1142 5.2866.6586c1.7622.5443 3.5244 1.4089 5.2866 2.546 1.7622 1.137 3.5244 2.5477 5.2866 4.1605 1.7622 1.6127 3.5244 3.428 5.2866 5.3582 1.7622 1.9301 3.5244 3.9752 5.2866 6.0397s3.5243 4.1481 5.2865 6.1568c1.7622 2.0086 3.5244 3.9415 5.2866 5.7144s3.5244 3.3845 5.2866 4.7678c1.7622 1.3832 3.5244 2.5364 5.2866 3.4147 1.7622.8782 3.5244 1.4798 5.2866 1.785s3.5244.3123 5.2866.028c1.7622-.2847 3.5244-.8627 5.2866-1.7033s3.5243-1.945 5.2865-3.2615c1.7622-1.3166 3.5244-2.8462 5.2866-4.5213s3.5244-3.4961 5.2866-5.3859 3.5244-3.8483 5.2866-5.7953 3.5244-3.882 5.2866-5.7284 3.5244-3.6032 5.2866-5.2035c1.7622-1.6002 3.5244-3.0426 5.2866-4.2745s3.5243-2.2518 5.2865-3.0252c1.7622-.7735 3.5244-1.2988 5.2866-1.5614s3.5244-.2611 5.2866 0c1.7622.26 3.5244.7798 5.2866 1.5344s3.5244 1.7452 5.2866 2.9302c1.7622 1.1849 3.5244 2.5651 5.2866 4.086s3.5244 3.183 5.2866 4.9232c1.7622 1.7403 3.5243 3.5589 5.2865 5.3891 1.7622 1.8303 3.5244 3.672 5.2866 5.4599 1.7622 1.7878 3.5244 3.5212 5.2866 5.1406 1.7622 1.6195 3.5244 3.1242 5.2866 4.4644 1.7622 1.3403 3.5244 2.515 5.2866 3.4875s3.5244 1.7415 5.2866 2.2852c1.7622.5438 3.5244.8609 5.2866.9457 1.7622.085 3.5243-.064 5.2865-.4369 1.7622-.3727 3.5244-.9705 5.2866-1.7689s3.5244-1.7984 5.2866-2.9632c1.7622-1.1649 3.5244-2.4954 5.2866-3.9453 1.7622-1.4498 3.5244-3.0195 5.2866-4.6565s3.5244-3.3415 5.2866-5.0583 3.5244-3.4459 5.2866-5.1329c1.7622-1.6871 3.5243-3.3317 5.2865-4.884s3.5244-3.0115 5.2866-4.3351 3.5244-2.5106 5.2866-3.528c1.7622-1.0173 3.5244-1.8639 5.2866-2.518s3.5244-1.1145 5.2866-1.3715c1.7622-.2571 3.5244-.3097 5.2866-.1606 1.7622.1492 3.5244.5013 5.2866 1.0418 1.7621.5406 3.5243 1.2706 5.2865 2.1652s3.5244 1.9545 5.2866 3.1463 3.5244 2.516 5.2866 3.9325 3.5244 2.9258 5.2866 4.4838 3.5244 3.1648 5.2866 4.775 3.5244 3.2237 5.2866 4.7963 3.5244 3.1039 5.2866 4.5532c1.7621 1.4493 3.5243 2.8161 5.2865 4.0653 1.7622 1.2493 3.5244 2.3802 5.2866 3.3652s3.5244 1.8232 5.2866 2.4955c1.7622.6722 3.5244 1.1776 5.2866 1.5063 1.7622.3288 3.5244.4798 5.2866.4528s3.5244-.2329 5.2866-.6089 3.5244-.9231 5.2866-1.6239c1.7621-.7008 3.5243-1.5562 5.2865-2.5416 1.7622-.9853 3.5244-2.1014 5.2866-3.3177 1.7622-1.2164 3.5244-2.5336 5.2866-3.9173 1.7622-1.3836 3.5244-2.8339 5.2866-4.3144 1.7622-1.4804 3.5244-2.9909 5.2866-4.4946s3.5244-3.0004 5.2866-4.4544c1.7622-1.4541 3.5244-2.8652 5.2866-4.2009 1.7621-1.3357 3.5243-2.5954 5.2865-3.7512 1.7622-1.1557 3.5244-2.2069 5.2866-3.1311 1.7622-.9243 3.5244-1.7208 5.2866-2.3739s3.5244-1.1619 5.2866-1.5177c1.7622-.3557 3.5244-.5576 5.2866-.604 1.7622-.046 3.5244.063 5.2866.3241 1.7622.2606 3.5244.6728 5.2866 1.2245 1.7621.5517 3.5243 1.2437 5.2865 2.058 1.7622.8142 3.5244 1.7514 5.2866 2.7888 1.7622 1.0375 3.5244 2.1756 5.2866 3.3879 1.7622 1.2124 3.5244 2.4993 5.2866 3.832s3.5244 2.7113 5.2866 4.1057c1.7622 1.3945 3.5244 2.8049 5.2866 4.2014s3.5244 2.7789 5.2866 4.119c1.7621 1.34 3.5243 2.6373 5.2865 3.8661s3.5244 2.3886 5.2866 3.4571c1.7622 1.0686 3.5244 2.0454 5.2866 2.9125 1.7622.867 3.5244 1.6237 5.2866 2.2571 1.7622.6333 3.5244 1.1426 5.2866 1.5202 1.7622.3775 3.5244.6225 5.2866.7328s3.5244.085 5.2866-.073c1.7621-.1577 3.5243-.4485 5.2865-.8643 1.7622-.4159 3.5244-.9574 5.2866-1.6119s3.5244-1.4225 5.2866-2.2874 3.5244-1.8271 5.2866-2.8669c1.7622-1.0397 3.5244-2.1573 5.2866-3.3305s3.5244-2.4023 5.2866-3.6636 3.5244-2.555 5.2865-3.8568c1.7622-1.3018 3.5244-2.6117 5.2866-3.9059s3.5244-2.5726 5.2866-3.8125 3.5244-2.4411 5.2866-3.5831c1.7622-1.1419 3.5244-2.2241 5.2866-3.2288s3.5244-1.9312 5.2866-2.7651c1.7622-.8338 3.5244-1.5744 5.2866-2.2106"/>
  </g>
  <path d="m679.05 2442.6v221.68" marker-end="url(#ap)" stroke-width="7"/>
 </g>
 <path transform="translate(-2,-2)" d="m3267.9 1457.3a19.771 19.771 0 1 1-39.542 0 19.771 19.771 0 1 1 39.542 0z" fill="#ffde15"/>
 <path transform="translate(154.76 148.28)" d="m3267.9 1457.3a19.771 19.771 0 1 1-39.542 0 19.771 19.771 0 1 1 39.542 0z" fill="#ffde15"/>
 <path d="m3570.4 1463.3c.9774-.6552 1.9548-1.3103 2.9258-1.959s1.9354-1.2909 2.8871-1.9203c.9516-.6293 1.8903-1.2458 2.8101-1.8432.9198-.5975 1.8205-1.1759 2.6963-1.7294.8759-.5535 1.7268-1.0821 2.5474-1.5803.8206-.4983 1.6108-.966 2.3657-1.3985s1.4743-.8295 2.1541-1.1868 1.3196-.6747 1.9161-.9485c.5964-.2739 1.1491-.504 1.6552-.6876.5062-.1835.9655-.3202 1.3759-.408.4104-.088.7716-.1262 1.0823-.1142s.5707.075.7793.189c.2087.1142.3657.2799.4716.497.1058.217.1602.4856.1641.8047 0 .319-.043.6888-.1384 1.1073-.096.4185-.24.8861-.4308 1.4-.1909.514-.4283 1.0746-.7089 1.6783-.2806.6038-.6046 1.251-.968 1.9375-.3633.6866-.7662 1.4127-1.2039 2.1737s-.9105 1.5571-1.4131 2.383-1.0353 1.6819-1.5922 2.5622c-.557.8803-1.1384 1.7851-1.7383 2.7084s-1.2184 1.8652-1.8491 2.8193c-.6308.9542-1.2739 1.9207-1.9229 2.8932-.649.9724-1.304 1.9508-1.9584 2.9287-.6545.9778-1.3083 1.9551-1.9552 2.9254s-1.2867 1.9336-1.9132 2.8835-1.2396 1.8863-1.8332 2.8033-1.1676 1.8144-1.7163 2.6865c-.5488.8721-1.072 1.7187-1.5646 2.5345-.4926.8159-.9542 1.6009-1.3803 2.3502-.426.7493-.8162 1.4627-1.1663 2.1361-.3502.6733-.6601 1.3064-.9263 1.8958-.2662.5893-.4884 1.1346-.6637 1.633-.1754.4985-.3038.9499-.3831 1.3522-.079.4023-.1091.7552-.089 1.0574.021.3023.092.5537.2152.7537.1228.2.2973.3483.5229.4455.2257.097.5029.1427.8303.138.3274 0 .7055-.06 1.132-.164.4266-.1039.9021-.2567 1.4236-.4556.5215-.199 1.0894-.4443 1.7001-.7325.6108-.2882 1.2646-.6196 1.9574-.9899.6929-.3704 1.4249-.78 2.1914-1.2241.7664-.444 1.5676-.9228 2.3981-1.4309.8305-.5082 1.6906-1.0459 2.5745-1.6075.884-.5616 1.7919-1.1473 2.7178-1.7509s1.8699-1.2252 2.8256-1.8587c.9557-.6334 1.9232-1.2787 2.8962-1.9293.9729-.6507 1.9512-1.3068 2.9285-1.9618.9772-.655 1.9534-1.3089 2.922-1.9552.9686-.6464 1.9297-1.2851 2.8769-1.91s1.8804-1.2359 2.7937-1.8269c.9132-.5909 1.8064-1.1618 2.6738-1.7069.8675-.5451 1.709-1.0642 2.5193-1.5522.8104-.488 1.5894-.9446 2.3325-1.3652.743-.4206 1.4497-.8049 2.1161-1.1488.6665-.3439 1.2923-.6473 1.8741-.9065.5818-.2593 1.1193-.4742 1.6099-.6422.4905-.1679.9337-.2885 1.3278-.3598.394-.071.7385-.093 1.0323-.064.2939.029.5367.1088.7282.2401.1916.1313.3315.3142.4202.5484.089.2341.1261.5198.1132.8556-.013.3358-.076.7222-.1879 1.1569-.1117.4348-.2721.9182-.4783 1.4476-.2063.5293-.4586 1.1048-.7535 1.7229s-.6327 1.279-1.009 1.9786c-.3763.6995-.7915 1.438-1.2408 2.2105-.4492.7725-.9327 1.5793-1.4451 2.415-.5124.8358-1.054 1.7007-1.6189 2.589s-1.1534 1.8001-1.7593 2.7294-1.2293 1.8761-1.864 2.8342-1.2807 1.9275-1.9315 2.9017c-.6508.9743-1.3065 1.9534-1.9606 2.9309-.654.9775-1.3065 1.9533-1.9508 2.9211-.6444.9678-1.2806 1.9275-1.9025 2.8728-.6219.9452-1.2293 1.876-1.8162 2.7863-.587.9104-1.1533 1.8001-1.6934 2.6635-.5402.8635-1.0539 1.7006-1.5361 2.5061-.4822.8054-.9326 1.5791-1.3466 2.3164s-.7914 1.4379-1.128 2.0978c-.3367.6598-.6325 1.2788-.884 1.8534s-.4584 1.1047-.6181 1.5874c-.1597.4828-.2719.9181-.3348 1.3039-.063.3858-.076.722-.038 1.0073s.1263.5196.2663.7024c.14.1829.3316.3141.5744.3941.2427.08.5369.1087.881.087.3442-.022.7388-.093 1.1815-.2134.4428-.1201.934-.2887 1.4708-.503.5368-.2142 1.1195-.4744 1.7445-.7768.6249-.3025 1.2924-.6474 1.9981-1.0307s1.4499-.805 2.2278-1.2605c.7778-.4554 1.5895-.9447 2.4297-1.4625.8402-.5179 1.709-1.0644 2.6008-1.6338.8917-.5694 1.8065-1.1619 2.7382-1.7714.9318-.6094 1.8805-1.2359 2.84-1.8731s1.9297-1.2851 2.9043-1.9374c.9745-.6523 1.9534-1.3089 2.9301-1.9634.9767-.6544 1.9512-1.3067 2.9172-1.9503.9659-.6437 1.9232-1.2787 2.8656-1.8988s1.8698-1.2252 2.7762-1.8094c.9064-.5841 1.7918-1.1471 2.6505-1.6834.8586-.5364 1.6905-1.0458 2.4903-1.5233.7998-.4774 1.5675-.9226 2.2983-1.331.7309-.4085 1.4247-.7798 2.0776-1.1102.6528-.3303 1.2644-.6194 1.8314-.8639.567-.2444 1.0892-.444 1.564-.5962.4747-.1521.9018-.2565 1.2793-.3114.3776-.055.7053-.06.9822-.014s.5026.1429.677.2913c.1744.1485.2971.3486.3688.5998.072.2513.092.5539.062.9064-.03.3526-.1094.7554-.2372 1.2062-.1278.4509-.3039.9501-.5254 1.4947-.2214.5446-.4885 1.1348-.7975 1.767-.3091.6322-.6603 1.3066-1.0494 2.019-.3891.7123-.8163 1.4628-1.2768 2.2466-.4605.7837-.9544 1.6009-1.4763 2.4462-.522.8453-1.0721 1.7188-1.6447 2.6148-.5726.8959-1.1677 1.8144-1.7793 2.7494-.6115.9349-1.2396 1.8864-1.8779 2.8481-.6382.9616-1.2867 1.9335-1.939 2.9092-.6522.9757-1.3083 1.9552-1.9616 2.932-.6534.9767-1.304 1.9508-1.9455 2.9157s-1.2738 1.9206-1.8907 2.8609-1.2183 1.8651-1.7982 2.7684c-.58.9034-1.1384 1.7851-1.6696 2.6396-.5312.8546-1.0351 1.6818-1.5066 2.4766s-.9104 1.557-1.3121 2.2819c-.4017.725-.7661 1.4126-1.0891 2.0588-.323.6461-.6044 1.2507-.841 1.8105-.2366.5597-.4281 1.0743-.572 1.5412-.1439.467-.2398.886-.2861 1.2553-.046.3692-.043.6885.012.9569.055.2683.1604.4854.3175.6511.1572.1658.366.2798.6257.3428.2598.063.5709.075.9317.037.3609-.038.7719-.1265 1.2306-.2626.4588-.1362.9657-.3204 1.5176-.5498.552-.2294 1.1493-.5042 1.7883-.8207.6389-.3164 1.3198-.6748 2.0382-1.0707.7183-.396 1.4745-.8297 2.2634-1.2962.7889-.4666 1.6109-.9661 2.4605-1.4933.8495-.5272 1.7268-1.0822 2.6261-1.6591.8992-.577 1.8205-1.176 2.7577-1.7909s1.8904-1.2458 2.8533-1.8864 1.9355-1.291 2.9113-1.9445 1.9548-1.3103 2.9306-1.9639c.9758-.6535 1.9484-1.3038 2.9113-1.9444.9629-.6407 1.916-1.2715 2.8533-1.8865.9372-.615 1.8585-1.2139 2.7577-1.7908.8993-.577 1.7765-1.1319 2.6261-1.6591.8497-.5273 1.6715-1.0268 2.4605-1.4934s1.545-.9001 2.2634-1.2961c.7185-.3961 1.3992-.7543 2.0382-1.0708.6391-.3165 1.2362-.5912 1.7883-.8206.552-.2295 1.0587-.4136 1.5176-.5499.4588-.1362.8696-.2243 1.2306-.2625.3609-.038.6718-.026.9317.036.2598.063.4684.1771.6257.3427.1572.1656.2628.3829.3175.6511.055.2683.058.5878.012.957s-.1423.7883-.2861 1.2552c-.1438.4668-.3355.9816-.572 1.5412-.2365.5597-.5181 1.1645-.841 1.8106-.323.6461-.6875 1.3338-1.0891 2.0587-.4017.7249-.8407 1.4872-1.3121 2.2819s-.9755 1.6221-1.5066 2.4766c-.5312.8545-1.0897 1.7363-1.6696 2.6396-.5799.9032-1.1813 1.8281-1.7982 2.7684-.6169.9402-1.2492 1.896-1.8907 2.8609s-1.2921 1.939-1.9455 2.9157c-.6533.9768-1.3094 1.9563-1.9616 2.932-.6523.9757-1.3008 1.9476-1.939 2.9093-.6383.9616-1.2663 1.9131-1.8779 2.8481-.6116.9349-1.2067 1.8534-1.7793 2.7494s-1.1227 1.7694-1.6447 2.6147-1.0158 1.6624-1.4763 2.4463c-.4605.7838-.8876 1.5341-1.2768 2.2466-.3892.7124-.7403 1.3867-1.0494 2.0189-.3091.6323-.576 1.2224-.7975 1.767-.2216.5447-.3975 1.0437-.5254 1.4947-.1279.4509-.2075.8536-.2372 1.2062-.03.3527-.01.6551.062.9064s.1945.4512.3688.5998c.1743.1485.4002.2454.677.2914s.6047.041.9822-.014c.3774-.055.8046-.1594 1.2793-.3114.4747-.1521.9971-.3518 1.564-.5962s1.1787-.5336 1.8314-.8639c.6528-.3303 1.3468-.7018 2.0776-1.1101.7308-.4084 1.4985-.8538 2.2983-1.3311.7998-.4774 1.6317-.987 2.4903-1.5232.8586-.5363 1.7441-1.0994 2.6505-1.6835s1.8339-1.1893 2.7762-1.8094c.9424-.62 1.8997-1.2551 2.8656-1.8987.966-.6437 1.9405-1.296 2.9172-1.9504.9767-.6545 1.9556-1.3111 2.9301-1.9634.9746-.6523 1.9448-1.3002 2.9043-1.9374s1.9082-1.2637 2.84-1.8731c.9317-.6095 1.8464-1.2019 2.7382-1.7714.8918-.5694 1.7606-1.1159 2.6008-1.6337.8403-.5179 1.6518-1.0071 2.4297-1.4626s1.522-.8771 2.2278-1.2605c.7058-.3833 1.3731-.7281 1.9981-1.0307.6251-.3025 1.2076-.5625 1.7445-.7768s1.0279-.3828 1.4708-.503c.4428-.1202.8372-.1918 1.1815-.2134.3442-.022.6382.01.881.087.2429.08.4343.2113.5744.3941.1401.1827.2286.4172.2663.7024.038.2852.024.6216-.038 1.0073-.063.3858-.1752.8212-.3348 1.3039s-.3667 1.0129-.6181 1.5874-.5473 1.1937-.884 1.8535c-.3366.6598-.7141 1.3605-1.128 2.0977-.414.7372-.8645 1.511-1.3466 2.3165-.4821.8054-.996 1.6425-1.5361 2.506-.54.8634-1.1065 1.7532-1.6934 2.6635-.5869.9102-1.1943 1.8411-1.8162 2.7864-.6218.9452-1.2581 1.9049-1.9025 2.8727-.6443.9678-1.2968 1.9436-1.9508 2.9211-.6541.9775-1.3098 1.9566-1.9606 2.9309-.6509.9742-1.2968 1.9436-1.9315 2.9017s-1.2581 1.9049-1.864 2.8342c-.6059.9294-1.1943 1.8411-1.7593 2.7294-.565.8884-1.1064 1.7532-1.6189 2.589s-.9958 1.6425-1.4451 2.415c-.4493.7726-.8644 1.5109-1.2408 2.2106-.3764.6996-.714 1.3604-1.009 1.9785-.295.6182-.5471 1.1935-.7535 1.7229-.2063.5295-.3665 1.0127-.4783 1.4476s-.175.821-.1879 1.1569c-.013.336.024.6214.1132.8556.089.2343.2287.417.4202.5484.1914.1314.4344.2111.7282.2402.2937.029.6384.01 1.0323-.064.394-.071.8374-.1921 1.3278-.3599.4905-.1678 1.0282-.383 1.6099-.6422.5817-.2591 1.2077-.5626 1.8741-.9065.6663-.3438 1.3732-.7283 2.1161-1.1488.743-.4205 1.5221-.8773 2.3325-1.3652.8103-.4879 1.6519-1.0072 2.5193-1.5522.8673-.545 1.7606-1.116 2.6738-1.7069.9133-.5909 1.8466-1.202 2.7937-1.8268.9472-.6249 1.9083-1.2637 2.8769-1.9101.9686-.6463 1.9448-1.3002 2.922-1.9552.9773-.655 1.9556-1.3111 2.9285-1.9617.973-.6507 1.9405-1.2959 2.8962-1.9294.9558-.6335 1.8997-1.2551 2.8256-1.8587.9259-.6037 1.8338-1.1892 2.7178-1.7509.884-.5616 1.7439-1.0993 2.5745-1.6075s1.6316-.9868 2.3981-1.4309c.7666-.4442 1.4985-.8536 2.1914-1.224.6929-.3705 1.3466-.7017 1.9574-.99s1.1785-.5334 1.7001-.7324c.5216-.1991.9969-.3517 1.4235-.4557.4267-.104.8046-.1592 1.1321-.164.3275 0 .6045.041.8303.138.2257.097.4.2457.5229.4456.123.1999.1944.4514.2152.7536.021.3021-.01.6552-.088 1.0574-.079.4022-.2077.8538-.3831 1.3522-.1753.4984-.3976 1.0438-.6637 1.6331-.2661.5892-.5762 1.2225-.9263 1.8958-.35.6733-.7404 1.3868-1.1663 2.136-.426.7493-.8878 1.5344-1.3803 2.3502s-1.0159 1.6625-1.5646 2.5345c-.5486.8721-1.1227 1.7695-1.7163 2.6865-.5936.9169-1.2067 1.8535-1.8332 2.8034-.6265.9498-1.2663 1.9131-1.9132 2.8834s-1.3007 1.9476-1.9552 2.9255c-.6544.9778-1.3094 1.9562-1.9584 2.9287-.649.9724-1.2921 1.9389-1.9229 2.8931-.6307.9542-1.2491 1.896-1.8491 2.8193-.5999.9233-1.1813 1.828-1.7383 2.7084s-1.0895 1.7362-1.5922 2.5622-.9753 1.622-1.4131 2.383c-.4378.7611-.8405 1.4871-1.2039 2.1737-.3635.6866-.6873 1.3337-.968 1.9375-.2807.6039-.5179 1.1642-.7089 1.6783-.1909.514-.3352.9814-.4308 1.4-.096.4187-.1422.7882-.1384 1.1074 0 .3191.058.5875.1641.8046.1057.2172.263.3827.4716.497.2085.1142.4687.1769.7793.189.3106.012.672-.027 1.0823-.1142.4103-.088.8698-.2245 1.3759-.408.506-.1834 1.0589-.4138 1.6552-.6875.5964-.2738 1.2364-.5914 1.9161-.9486s1.3993-.7544 2.1541-1.1868c.7549-.4324 1.5451-.9003 2.3657-1.3985.8206-.4981 1.6716-1.0268 2.5474-1.5803s1.7766-1.1319 2.6963-1.7293c.9197-.5975 1.8585-1.214 2.8101-1.8433.9517-.6294 1.9162-1.2716 2.8871-1.9203.9709-.6486 1.9484-1.3038 2.9258-1.959" fill="none" stroke="#fff" stroke-width="5"/>
 <path transform="translate(471.09 151.81)" d="m3267.9 1457.3a19.771 19.771 0 1 1-39.542 0 19.771 19.771 0 1 1 39.542 0z" fill="#ffde15"/>
 <path transform="translate(311.51 -2.8244)" d="m3267.9 1457.3a19.771 19.771 0 1 1-39.542 0 19.771 19.771 0 1 1 39.542 0z" fill="#ffde15"/>
 <g fill="#4cb7e5" stroke-width="4">
  <path d="m4720.4 852.12 86.869-72.785" marker-end="url(#aa)" stroke="#ee1c25"/>
  <path d="m4813.5 777.76 86.869 72.785" marker-end="url(#ac)" stroke="#4cb7e2"/>
  <path d="m4150.4 852.25 72.869-72.785" marker-end="url(#aa)" stroke="#ee1c25"/>
  <path d="m4229.5 777.76 72.869 72.785" marker-end="url(#ai)" stroke="#4cb7e2"/>
  <path d="m3656.4 852.37 60.869-72.785" marker-end="url(#aa)" stroke="#ee1c25"/>
  <path d="m3723.5 777.76 60.869 72.785" marker-end="url(#ah)" stroke="#4cb7e2"/>
  <path d="m3226.4 852.45 52.869-72.785" marker-end="url(#aa)" stroke="#ee1c25"/>
  <path d="m3285.5 777.76 52.869 72.785" marker-end="url(#ag)" stroke="#4cb7e2"/>
  <path d="m2848.4 852.53 44.869-72.785" marker-end="url(#aa)" stroke="#ee1c25"/>
  <path d="m2899.5 777.76 44.869 72.785" marker-end="url(#af)" stroke="#4cb7e2"/>
  <path d="m2512.4 852.6 38.869-72.785" marker-end="url(#aa)" stroke="#ee1c25"/>
  <path d="m2557.5 777.76 38.869 72.785" marker-end="url(#ae)" stroke="#4cb7e2"/>
  <path d="m2212.4 852.65 32.869-72.785" marker-end="url(#aa)" stroke="#ee1c25"/>
  <path d="m2251.5 777.76 32.869 72.785" marker-end="url(#ad)" stroke="#4cb7e2"/>
  <path d="m1942.4 852.69 28.869-72.785" marker-end="url(#aa)" stroke="#ee1c25"/>
  <path d="m1977.5 777.76 28.869 72.785" marker-end="url(#an)" stroke="#4cb7e2"/>
  <path d="m1700.4 852.72 24.869-72.785" marker-end="url(#aa)" stroke="#ee1c25"/>
  <path d="m1731.5 777.76 24.869 72.785" marker-end="url(#am)" stroke="#4cb7e2"/>
  <path d="m1480.4 852.75 20.869-72.785" marker-end="url(#aa)" stroke="#ee1c25"/>
  <path d="m1507.5 777.76 20.869 72.785" marker-end="url(#al)" stroke="#4cb7e2"/>
  <path d="m1278.4 852.77 18.869-72.785" marker-end="url(#aa)" stroke="#ee1c25"/>
  <path d="m1303.5 777.76 18.869 72.785" marker-end="url(#ak)" stroke="#4cb7e2"/>
  <path d="m1096.4 852.79 14.869-72.785" marker-end="url(#aa)" stroke="#ee1c25"/>
  <path d="m1117.5 777.76 14.869 72.785" marker-end="url(#aj)" stroke="#4cb7e2"/>
  <path d="m926.45 852.8 12.869-72.785" marker-end="url(#aa)" stroke="#ee1c25"/>
  <path d="m945.51 777.76 12.869 72.785" marker-end="url(#ao)" stroke="#4cb7e2"/>
  <path d="m4902.4 674.45-86.869 72.785" marker-end="url(#aa)" stroke="#ee1c25"/>
  <path d="m4809.4 748.8-86.869-72.785" marker-end="url(#ac)" stroke="#4cb7e2"/>
  <path d="m4304.2 674.32-72.869 72.785" marker-end="url(#aa)" stroke="#ee1c25"/>
  <path d="m4225.1 748.8-72.869-72.785" marker-end="url(#ai)" stroke="#4cb7e2"/>
  <path d="m3785.9 674.2-60.869 72.785" marker-end="url(#aa)" stroke="#ee1c25"/>
  <path d="m3718.9 748.8-60.869-72.785" marker-end="url(#ah)" stroke="#4cb7e2"/>
  <path d="m3339.7 674.11-52.869 72.785" marker-end="url(#aa)" stroke="#ee1c25"/>
  <path d="m3280.7 748.8-52.869-72.785" marker-end="url(#ag)" stroke="#4cb7e2"/>
  <path d="m2945.5 674.03-44.869 72.785" marker-end="url(#aa)" stroke="#ee1c25"/>
  <path d="m2894.4 748.8-44.869-72.785" marker-end="url(#af)" stroke="#4cb7e2"/>
  <path d="m2597.3 673.97-38.869 72.785" marker-end="url(#aa)" stroke="#ee1c25"/>
  <path d="m2552.2 748.8-38.869-72.785" marker-end="url(#ae)" stroke="#4cb7e2"/>
  <path d="m2285 673.91-32.869 72.785" marker-end="url(#aa)" stroke="#ee1c25"/>
  <path d="m2246 748.8-32.869-72.785" marker-end="url(#ad)" stroke="#4cb7e2"/>
  <path d="m2006.9 673.87-28.869 72.785" marker-end="url(#aa)" stroke="#ee1c25"/>
  <path d="m1971.8 748.8-28.869-72.785" marker-end="url(#an)" stroke="#4cb7e2"/>
  <path d="m1756.7 673.84-24.869 72.785" marker-end="url(#aa)" stroke="#ee1c25"/>
  <path d="m1725.6 748.8-24.869-72.785" marker-end="url(#am)" stroke="#4cb7e2"/>
  <path d="m1528.5 673.81-20.869 72.785" marker-end="url(#aa)" stroke="#ee1c25"/>
  <path d="m1501.4 748.8-20.869-72.785" marker-end="url(#al)" stroke="#4cb7e2"/>
  <path d="m1323.1 673.8-18.869 72.785" marker-end="url(#aa)" stroke="#ee1c25"/>
  <path d="m1298 748.8-18.869-72.785" marker-end="url(#ak)" stroke="#4cb7e2"/>
  <path d="m1134.4 673.77-14.869 72.785" marker-end="url(#aa)" stroke="#ee1c25"/>
  <path d="m1113.4 748.8-14.869-72.785" marker-end="url(#aj)" stroke="#4cb7e2"/>
  <path d="m961.08 673.76-12.869 72.785" marker-end="url(#aa)" stroke="#ee1c25"/>
  <path d="m942.02 748.8-12.869-72.785" marker-end="url(#ao)" stroke="#4cb7e2"/>
  <path d="m4596.4 852.12-86.869-72.785" marker-end="url(#aa)" stroke="#ee1c25"/>
  <path d="m4503.4 777.76-86.869 72.785" marker-end="url(#ac)" stroke="#4cb7e2"/>
  <path d="m4038.2 852.25-72.869-72.785" marker-end="url(#aa)" stroke="#ee1c25"/>
  <path d="m3959.1 777.76-72.869 72.785" marker-end="url(#ai)" stroke="#4cb7e2"/>
  <path d="m3557.9 852.37-60.869-72.785" marker-end="url(#aa)" stroke="#ee1c25"/>
  <path d="m3490.9 777.76-60.869 72.785" marker-end="url(#ah)" stroke="#4cb7e2"/>
  <path d="m3137.7 852.45-52.869-72.785" marker-end="url(#aa)" stroke="#ee1c25"/>
  <path d="m3078.7 777.76-52.869 72.785" marker-end="url(#ag)" stroke="#4cb7e2"/>
  <path d="m2767.5 852.53-44.869-72.785" marker-end="url(#aa)" stroke="#ee1c25"/>
  <path d="m2716.4 777.76-44.869 72.785" marker-end="url(#af)" stroke="#4cb7e2"/>
  <path d="m2439.3 852.6-38.869-72.785" marker-end="url(#aa)" stroke="#ee1c25"/>
  <path d="m2394.2 777.76-38.869 72.785" marker-end="url(#ae)" stroke="#4cb7e2"/>
  <path d="m2145 852.65-32.869-72.785" marker-end="url(#aa)" stroke="#ee1c25"/>
  <path d="m2106 777.76-32.869 72.785" marker-end="url(#ad)" stroke="#4cb7e2"/>
  <path d="m1880.9 852.69-28.869-72.785" marker-end="url(#aa)" stroke="#ee1c25"/>
  <path d="m1845.8 777.76-28.869 72.785" marker-end="url(#an)" stroke="#4cb7e2"/>
  <path d="m1642.7 852.72-24.869-72.785" marker-end="url(#aa)" stroke="#ee1c25"/>
  <path d="m1611.6 777.76-24.869 72.785" marker-end="url(#am)" stroke="#4cb7e2"/>
  <path d="m1424.5 852.75-20.869-72.785" marker-end="url(#aa)" stroke="#ee1c25"/>
  <path d="m1397.4 777.76-20.869 72.785" marker-end="url(#al)" stroke="#4cb7e2"/>
  <path d="m1227.1 852.77-18.869-72.785" marker-end="url(#aa)" stroke="#ee1c25"/>
  <path d="m1202 777.76-18.869 72.785" marker-end="url(#ak)" stroke="#4cb7e2"/>
  <path d="m1044.4 852.79-14.869-72.785" marker-end="url(#aa)" stroke="#ee1c25"/>
  <path d="m1023.4 777.76-14.869 72.785" marker-end="url(#aj)" stroke="#4cb7e2"/>
  <path d="m4414.4 674.45 86.869 72.785" marker-end="url(#aa)" stroke="#ee1c25"/>
  <path d="m4507.5 748.8 86.869-72.785" marker-end="url(#ac)" stroke="#4cb7e2"/>
  <path d="m3884.4 674.32 72.869 72.785" marker-end="url(#aa)" stroke="#ee1c25"/>
  <path d="m3963.5 748.8 72.869-72.785" marker-end="url(#ai)" stroke="#4cb7e2"/>
  <path d="m3428.4 674.2 60.869 72.785" marker-end="url(#aa)" stroke="#ee1c25"/>
  <path d="m3495.5 748.8 60.869-72.785" marker-end="url(#ah)" stroke="#4cb7e2"/>
  <path d="m3024.4 674.11 52.869 72.785" marker-end="url(#aa)" stroke="#ee1c25"/>
  <path d="m3083.5 748.8 52.869-72.785" marker-end="url(#ag)" stroke="#4cb7e2"/>
  <path d="m2670.4 674.03 44.869 72.785" marker-end="url(#aa)" stroke="#ee1c25"/>
  <path d="m2721.5 748.8 44.869-72.785" marker-end="url(#af)" stroke="#4cb7e2"/>
  <path d="m2354.4 673.97 38.869 72.785" marker-end="url(#aa)" stroke="#ee1c25"/>
  <path d="m2399.5 748.8 38.869-72.785" marker-end="url(#ae)" stroke="#4cb7e2"/>
  <path d="m2072.4 673.91 32.869 72.785" marker-end="url(#aa)" stroke="#ee1c25"/>
  <path d="m2111.5 748.8 32.869-72.785" marker-end="url(#ad)" stroke="#4cb7e2"/>
  <path d="m1816.4 673.87 28.869 72.785" marker-end="url(#aa)" stroke="#ee1c25"/>
  <path d="m1851.5 748.8 28.869-72.785" marker-end="url(#an)" stroke="#4cb7e2"/>
  <path d="m1586.4 673.84 24.869 72.785" marker-end="url(#aa)" stroke="#ee1c25"/>
  <path d="m1617.5 748.8 24.869-72.785" marker-end="url(#am)" stroke="#4cb7e2"/>
  <path d="m1376.4 673.81 20.869 72.785" marker-end="url(#aa)" stroke="#ee1c25"/>
  <path d="m1403.5 748.8 20.869-72.785" marker-end="url(#al)" stroke="#4cb7e2"/>
  <path d="m1182.4 673.8 18.869 72.785" marker-end="url(#aa)" stroke="#ee1c25"/>
  <path d="m1207.5 748.8 18.869-72.785" marker-end="url(#ak)" stroke="#4cb7e2"/>
  <path d="m1006.4 673.77 14.869 72.785" marker-end="url(#aa)" stroke="#ee1c25"/>
  <path d="m1027.5 748.8 14.869-72.785" marker-end="url(#aj)" stroke="#4cb7e2"/>
  <path d="m5242.4 852.12-100.87-72.785" marker-end="url(#aa)" stroke="#ee1c25"/>
  <path d="m5135.4 777.76-100.87 72.785" marker-end="url(#ac)" stroke="#4cb7e2"/>
  <path d="m5032.4 674.45 100.87 72.785" marker-end="url(#aa)" stroke="#ee1c25"/>
  <path d="m5139.5 748.8 100.87-72.785" marker-end="url(#ac)" stroke="#4cb7e2"/>
 </g>
 <g font-family="sans">
  <g font-size="144" text-anchor="middle">
   <text x="2764.1" y="303.8" letter-spacing="-.06" style="line-height:125%">
    <tspan x="2760.8" y="303.8" fill="#fff" font-weight="bold" letter-spacing="-6.5">History of the Universe</tspan></text>
   <text x="2766.1" y="3934" letter-spacing="-6.2" style="line-height:125%">
    <tspan x="2763" y="3934" fill="#fff" font-size="100" font-weight="bold">Age of the Universe</tspan></text>
   <text transform="rotate(-90)" x="-2767.1" y="239.8" letter-spacing="-6.2" style="line-height:125%">
    <tspan x="-2770.2" y="239.8" fill="#fff" font-size="100" font-weight="bold">Radius of the Visible Universe</tspan></text>
  </g>
  <g fill="#fff">
   <g font-size="56">
    <text x="769.3" y="769.3" text-anchor="start" font-size="95" style="line-height:125%">
     <tspan x="183.7" y="769.3">
      <tspan x="183.7" y="769.3" font-size="95" letter-spacing="-6.2">Inflation</tspan>

     </tspan>

     <tspan x="183.7" y="864.3">
      <tspan x="183.7" y="864.3" font-size="95" letter-spacing="-6.2">Generates</tspan>

     </tspan>

     <tspan x="183.7" y="959.3">
      <tspan x="183.7" y="959.3" font-size="95" letter-spacing="-6.2">Two Types of</tspan>

     </tspan>

     <tspan x="183.7" y="1054.3">
      <tspan x="183.7" y="1054.3" font-size="95" letter-spacing="-6.2">Waves</tspan>

     </tspan></text>
    <text x="2427.6" y="1796.8" style="line-height:125%">
     <tspan x="2721.3" y="1796.8">
      <tspan x="2721.3" y="1796.8" font-size="95" letter-spacing="-6.2" style="line-height:100%">Free Electrons</tspan>

     </tspan>

     <tspan x="2751.5" y="1891.8">
      <tspan x="2751.5" y="1891.8" font-size="95" letter-spacing="-6.2" style="line-height:100%">Scatter Light</tspan>

     </tspan></text>
    <text x="3479.6" y="1790" style="line-height:125%">
     <tspan x="3830.8" y="1790">
      <tspan x="3830.8" y="1790" font-size="95" letter-spacing="-6.2" style="line-height:100%">Earliest Time</tspan>

     </tspan>

     <tspan x="3750.8" y="1885">
      <tspan x="3750.8" y="1885" font-size="95" letter-spacing="-6.2" style="line-height:100%">Visible with Light</tspan>

     </tspan></text>
   </g>
   <text x="901.2" y="1151.3" font-size="95" letter-spacing="-6.2" style="line-height:100%">
    <tspan x="901.2" y="1151.3">Density Waves</tspan></text>
   <text x="905.1" y="555.8" font-size="95" letter-spacing="-6.2" style="line-height:100%">
    <tspan x="905.1" y="555.8">Gravitational Waves</tspan></text>
  </g>
  <text transform="rotate(-90)" x="-2763.6" y="938.4" font-size="95" letter-spacing="-6.2" text-anchor="middle" style="line-height:100%">
   <tspan x="-2766.7" y="938.4">Inflation</tspan></text>
  <g transform="rotate(-90)" fill="#fff" font-size="95" letter-spacing="-6.2" text-anchor="middle">
   <text x="-2764.9" y="1552.4" style="line-height:100%">
    <tspan x="-2768" y="1552.4">Protons Formed</tspan></text>
   <text x="-2767.2" y="2306.4" style="line-height:100%">
    <tspan x="-2770.3" y="2306.4">Nuclear Fusion Begins</tspan></text>
   <text x="-2767.2" y="3062.4" style="line-height:100%">
    <tspan x="-2770.3" y="3062.4">Nuclear Fusion Ends</tspan></text>
   <text x="-2762.9" y="3669.1" style="line-height:100%">
    <tspan x="-2766" y="3669.1">Cosmic Microwave Background</tspan></text>
   <text x="-2767.2" y="3874.4" style="line-height:100%">
    <tspan x="-2770.3" y="3874.4">Neutral Hydrogen Forms</tspan></text>
   <text x="-2766.9" y="4553.6" style="line-height:100%">
    <tspan x="-2770" y="4553.6">Modern Universe</tspan></text>
  </g>
  <text x="305.8" y="2742" font-size="56" style="line-height:125%">
   <tspan x="409.6" y="2742">
    <tspan x="409.6" y="2742" font-size="95" letter-spacing="-6.2" style="line-height:100%">Big</tspan>

   </tspan>

   <tspan x="366.9" y="2837">
    <tspan x="366.9" y="2837" font-size="95" letter-spacing="-6.2" style="line-height:100%">Bang</tspan>

   </tspan></text>
  <text x="2406.2" y="1060.4" fill="#fedd18" font-size="56" style="line-height:125%">
   <tspan x="3060.6" y="1060.4">
    <tspan x="3060.6" y="1060.4" font-size="102" letter-spacing="-6.2" style="line-height:100%">Waves Imprint Characteristic</tspan>

   </tspan>

   <tspan x="3280.5" y="1162.4">
    <tspan x="3280.5" y="1162.4" font-size="102" letter-spacing="-6.2" style="line-height:100%">Polarization Signals</tspan>

   </tspan></text>
  <g fill="#fff" font-size="95" letter-spacing="-6.2" text-anchor="middle">
   <text x="473.3" y="3802.6" style="line-height:100%">
    <tspan x="470.2" y="3802.6" font-size="90">0</tspan></text>
   <text x="979.1" y="3802.6" style="line-height:100%">
    <tspan x="976" y="3802.6" font-size="90">10
     <tspan baseline-shift="super" font-size="65.001%">−32</tspan>

s    </tspan></text>
   <text x="1593.1" y="3802.6" style="line-height:100%">
    <tspan x="1590" y="3802.6" font-size="90">1 µs</tspan></text>
   <text x="2350.2" y="3802.6" style="line-height:100%">
    <tspan x="2347.1" y="3802.6" font-size="90">0.01 s</tspan></text>
   <text x="3107.6" y="3802.6" style="line-height:100%">
    <tspan x="3104.4" y="3802.6" font-size="90">3 min</tspan></text>
   <text x="3717.3" y="3802.6" style="line-height:100%">
    <tspan x="3714.2" y="3802.6" font-size="90">380,000 yrs</tspan></text>
   <text x="4987.6" y="3802.6" style="line-height:100%">
    <tspan x="4984.5" y="3802.6" font-size="90">13.8 Billion yrs</tspan></text>
  </g>
 </g>
 <path d="m862.62 583.53c14.946.0958 29.892 112.23 44.838 215.23s29.892 169.75 44.838 134.73 29.892-160.9 44.838-250.62c14.946-89.721 29.892-124.04 44.838-73.08s29.892 174.86 44.838 254.71 29.892 101.38 44.838 48.194 29.892-170.27 44.838-247.43 29.892-102.61 44.838-57.568c14.946 45.044 29.892 152.58 44.838 232.65s29.892 122.05 44.838 94.834c14.946-27.217 29.892-119.02 44.838-202.56s29.892-149.03 44.838-149.09c14.946-.0575 29.892 64.368 44.838 144.19s29.892 166.69 44.838 200.14c14.946 33.445 29.892 11.007 44.838-49.581 14.946-60.589 29.892-153.53 44.838-216.82 14.946-63.283 29.892-92.095 44.838-69.915s29.892 93.105 44.838 167.06 29.892 145.7 44.838 172.78 29.892 8.1882 44.838-43.625 29.892-133.07 44.838-197.04c14.946-63.966 29.892-107.16 44.838-107.2 14.946-.0392 29.892 42.719 44.838 103.79s29.892 137.29 44.838 189.13c14.946 51.837 29.892 77.081 44.838 64.525s29.892-62.116 44.838-123.16 29.892-131.04 44.838-177.01c14.946-45.963 29.892-66.306 44.838-53.056s29.892 59.446 44.838 116.78 29.892 123.86 44.838 170.84c14.946 46.979 29.892 73.057 44.838 68.441s29.892-39.662 44.838-89.645 29.892-113.5 44.838-165.16 29.892-90.206 44.838-101.66 29.892 4.377 44.838 40.39 29.892 91.356 44.838 145.35 29.892 105.53 44.838 136.83 29.892 41.777 44.838 28.878 29.892-48.898 44.838-95.127 29.892-101.87 44.838-148.76 29.892-84.268 44.838-100.99 29.892-12.562 44.838 10.281c14.946 22.842 29.892 64.018 44.838 110.63s29.892 98.012 44.838 139.34c14.946 41.329 29.892 72.063 44.838 84.155s29.892 5.404 44.838-17.416 29.892-61.511 44.838-105.2 29.892-91.924 44.838-132.17c14.946-40.242 29.892-72.088 44.838-87.992s29.892-15.708 44.838-.17148 29.892 46.283 44.838 84.322 29.892 83.055 44.838 124.41 29.892 78.714 44.838 103.9c14.946 25.189 29.892 38.004 44.838 36.194s29.892-18.249 44.838-45.197 29.892-64.238 44.838-103.72 29.892-80.901 44.838-115.84c14.946-34.94 29.892-63.177 44.838-79.459s29.892-20.494 44.838-12.347 29.892 28.634 44.838 57.117 29.892 64.831 44.838 102.11 29.892 75.3 44.838 107.3c14.946 32.004 29.892 57.825 44.838 73.263s29.892 20.399 44.838 14.487c14.946-5.9118 29.892-22.7 44.838-47.151s29.892-56.489 44.838-90.662c14.946-34.172 29.892-70.357 44.838-102.81 14.946-32.452 29.892-61.046 44.838-81.575s29.892-32.901 44.838-35.607 29.892 4.2917 44.838 19.579 29.892 38.842 44.838 66.985 29.892 60.806 44.838 93.28 29.892 64.667 44.838 92.236c14.946 27.568 29.892 50.423 44.838 65.734s29.892 23.013 44.838 22.418 29.892-9.5149 44.838-25.303 29.892-38.433 44.838-64.874 29.892-56.633 44.838-86.796 29.892-60.234 44.838-86.682c14.946-26.447 29.892-49.205 44.838-65.804s29.892-26.982 44.838-30.229 29.892.67744 44.838 11.062 29.892 27.239 44.838 48.501 29.892 46.917 44.838 74.102 29.892 55.865 44.838 83.04 29.892 52.797 44.838 74.357 29.892 39.009 44.838 50.792 29.892 17.861 44.838 17.867 29.892-6.0859 44.838-17.472 29.892-28.077 44.838-48.337 29.892-44.082 44.838-69.191 29.892-51.481 44.838-76.751 29.892-49.403 44.838-70.367c14.946-20.963 29.892-38.72 44.838-51.893s29.892-21.729 44.838-25.133c14.946-3.4036 29.892-1.6283 44.838 4.9917s29.892 18.101 44.838 33.357 29.892 34.29 44.838 55.492 29.892 44.563 44.838 68.235" fill="none" stroke="#f9b03d" stroke-dasharray="40,20" stroke-linecap="round" stroke-width="10"/>
 <path d="m861.89 763.96h4447.1" fill="none" stroke="#fff" stroke-width="5"/>
 <text transform="rotate(-90)" x="-2630" y="666.1" fill="#fff" font-family="sans" font-size="56" style="line-height:125%">
  <tspan x="-2383" y="666.1">
   <tspan x="-2383" y="666.1" font-size="95" letter-spacing="-6.2" style="line-height:100%">Quantum</tspan>

  </tspan>

  <tspan x="-2434.1" y="761.1">
   <tspan x="-2434.1" y="761.1" font-size="95" letter-spacing="-6.2" style="line-height:100%">Fluctuations</tspan>

  </tspan></text>
</svg>
